<svg width="187" height="23" viewBox="0 0 187 23" fill="none" xmlns="http://www.w3.org/2000/svg">
<path d="M21.4093 22.0505H15.8064L8.70311 12.2419C8.17955 12.2654 7.75367 12.2771 7.42547 12.2771C7.25355 12.2771 6.94879 12.2654 6.51119 12.2419V18.3357C6.51119 19.7263 6.70264 20.5974 7.08554 20.949C7.47626 21.3005 8.01545 21.4763 8.70311 21.4763H9.52362V22.0505H0.533203V21.4763H1.33027C2.19766 21.4763 2.78374 21.2537 3.0885 20.8083C3.40107 20.3552 3.55736 19.531 3.55736 18.3357V4.78882C3.55736 3.39819 3.362 2.5271 2.97128 2.17554C2.58056 1.82397 2.03356 1.64819 1.33027 1.64819H0.533203V1.07397H8.17564C10.0511 1.07397 11.5554 1.19507 12.6884 1.43726C13.8293 1.67944 14.8178 2.26538 15.654 3.19507C16.4901 4.12476 16.9082 5.2185 16.9082 6.47632C16.9082 9.28882 15.1851 11.0779 11.739 11.8435L16.076 17.8552C17.1543 19.3474 18.0686 20.3005 18.8188 20.7146C19.5768 21.1287 20.4403 21.3826 21.4093 21.4763V22.0505ZM6.51119 2.53882V11.2693H7.37858C9.23058 11.2693 10.6997 10.8708 11.7859 10.074C12.8799 9.26929 13.4269 8.13647 13.4269 6.67554C13.4269 5.16772 12.9698 4.05444 12.0555 3.33569C11.149 2.60913 10.1097 2.24585 8.93754 2.24585C7.94512 2.24585 7.13633 2.34351 6.51119 2.53882Z" fill="#05215C"/>
<path d="M35.4047 17.885L33.9757 22.0505H21.1699V21.5959H21.7638C22.3453 21.5959 22.7877 21.4475 23.0908 21.1506C23.4001 20.8538 23.5548 20.1796 23.5548 19.1282V8.33862C23.5548 7.21297 23.4063 6.52645 23.1093 6.27905C22.8124 6.02547 22.3639 5.89868 21.7638 5.89868H21.1699V5.44409H33.9757L34.1613 9.08081H33.6788C33.4622 7.95516 33.1498 7.21915 32.7415 6.8728C32.3394 6.52645 31.5785 6.35327 30.4587 6.35327H25.9025V12.9124H29.5494C30.4031 12.9124 31.0372 12.7732 31.4517 12.4949C31.8723 12.2165 32.1105 11.5517 32.1662 10.5002H32.6116V16.28H32.1662C32.061 15.1606 31.7795 14.4709 31.3217 14.2112C30.8701 13.9452 30.2793 13.8123 29.5494 13.8123H25.9025V19.2859C25.9025 20.0714 25.9829 20.5785 26.1438 20.8074C26.3046 21.03 26.682 21.1414 27.2759 21.1414H30.0876C31.2506 21.1414 32.16 20.9558 32.8158 20.5847C33.4777 20.2136 34.1798 19.3137 34.9222 17.885H35.4047Z" fill="#05215C"/>
<path d="M36.0268 22.0505V21.5959H36.6486C37.1682 21.5959 37.5951 21.4568 37.9292 21.1785C38.2632 20.894 38.4303 20.2043 38.4303 19.1096V8.38501C38.4303 7.29028 38.2694 6.60376 37.9477 6.32544C37.6322 6.04093 37.1992 5.89868 36.6486 5.89868H36.0268V5.44409H43.1999C47.8645 5.44409 50.1967 6.92228 50.1967 9.87866C50.1967 11.697 49.1976 12.9309 47.1994 13.5803C49.7111 14.106 50.9669 15.4141 50.9669 17.5046C50.9669 18.4942 50.639 19.3725 49.9833 20.1394C49.3337 20.9001 48.5481 21.4104 47.6263 21.6702C46.7045 21.9237 45.4518 22.0505 43.8681 22.0505H36.0268ZM40.778 6.53882V12.9124C41.3842 13.0299 42.1575 13.0886 43.0979 13.0886C46.123 13.0886 47.6356 11.9846 47.6356 9.77661C47.6356 8.66951 47.1994 7.80672 46.3271 7.18823C45.4549 6.56974 44.3413 6.2605 42.9865 6.2605C42.1699 6.2605 41.4337 6.35327 40.778 6.53882ZM40.778 14.0442V20.8538C41.7245 21.0702 42.6586 21.1785 43.5804 21.1785C44.9352 21.1785 46.0302 20.8754 46.8654 20.2693C47.7067 19.657 48.1274 18.8066 48.1274 17.718C48.1274 16.512 47.6696 15.5811 46.754 14.9255C45.8384 14.2638 44.5702 13.9329 42.9494 13.9329C41.8977 13.9329 41.1739 13.97 40.778 14.0442Z" fill="#05215C"/>
<path d="M69.1181 13.6453C69.1181 16.113 68.3448 18.1943 66.7982 19.8889C65.2516 21.5836 63.3029 22.4309 60.9521 22.4309C59.356 22.4309 57.9579 22.0567 56.7577 21.3083C55.5576 20.56 54.6049 19.5364 53.8996 18.2375C53.2006 16.9325 52.851 15.4141 52.851 13.6824C52.851 11.1837 53.6553 9.1241 55.2637 7.50366C56.8784 5.87703 58.8394 5.06372 61.147 5.06372C62.6688 5.06372 64.0174 5.441 65.1928 6.19555C66.3682 6.95011 67.3148 7.97371 68.0324 9.26636C68.7562 10.5528 69.1181 12.0124 69.1181 13.6453ZM66.3157 13.9792C66.3157 8.62931 64.5154 5.95434 60.915 5.95434C59.9251 5.95434 59.0405 6.2172 58.261 6.74292C57.4877 7.26245 56.8598 8.1005 56.3773 9.25708C55.8947 10.4137 55.6535 11.8733 55.6535 13.636C55.6535 16.0481 56.1143 17.9716 57.0361 19.4065C57.9641 20.8414 59.2601 21.5588 60.9242 21.5588C62.6812 21.5588 64.0174 20.8847 64.933 19.5364C65.8548 18.1819 66.3157 16.3295 66.3157 13.9792Z" fill="#05215C"/>
<path d="M87.5476 5.89868H86.9259C86.3011 5.89868 85.8495 6.0966 85.5711 6.49243C85.2989 6.88826 85.1628 7.55005 85.1628 8.47778V15.2131C85.1628 16.6295 85.0267 17.8541 84.7545 18.887C84.4823 19.9137 83.8389 20.7641 82.8243 21.4382C81.816 22.1062 80.4643 22.4402 78.7692 22.4402C77.1298 22.4402 75.7935 22.1433 74.7604 21.5496C73.7335 20.9496 73.0592 20.1796 72.7375 19.2395C72.4158 18.2932 72.2549 16.8367 72.2549 14.8699V8.38501C72.2549 7.53768 72.1405 6.913 71.9116 6.51098C71.6889 6.10278 71.2064 5.89868 70.464 5.89868H69.8423V5.44409H77.0154V5.89868H76.3751C75.8492 5.89868 75.4224 6.04402 75.0945 6.33471C74.7666 6.6254 74.6027 7.30884 74.6027 8.38501V15.6213C74.6027 16.9944 74.7357 18.0891 75.0017 18.9055C75.2677 19.7157 75.7317 20.3342 76.3936 20.761C77.0556 21.1816 77.8969 21.3918 78.9177 21.3918C79.8951 21.3918 80.8107 21.1846 81.6644 20.7703C82.5243 20.3497 83.1368 19.7776 83.5018 19.054C83.8729 18.3241 84.0585 17.0098 84.0585 15.1111V8.38501C84.0585 7.2841 83.9039 6.59448 83.5946 6.31616C83.2852 6.03784 82.8522 5.89868 82.2954 5.89868H81.6737V5.44409H87.5476V5.89868Z" fill="#05215C"/>
<path d="M102.219 17.5417L100.799 22.0505H87.9378V21.5959H88.5595C89.2585 21.5959 89.7287 21.4197 89.97 21.0671C90.2112 20.7084 90.3319 20.0528 90.3319 19.1003V8.38501C90.3319 7.27791 90.1741 6.5883 89.8586 6.31616C89.5493 6.03784 89.1163 5.89868 88.5595 5.89868H87.9378V5.44409H95.4635V5.89868C94.7706 5.89868 94.2169 5.96362 93.8024 6.0935C93.3941 6.22339 93.1034 6.4213 92.9302 6.68725C92.7631 6.94702 92.6796 7.60571 92.6796 8.66333V19.1003C92.6796 19.9353 92.8002 20.461 93.0415 20.6775C93.2828 20.8878 94.0159 20.9929 95.2408 20.9929H96.4564C97.44 20.9929 98.2133 20.9342 98.7763 20.8166C99.3392 20.6991 99.8682 20.3992 100.363 19.9167C100.858 19.4281 101.344 18.6086 101.82 17.4583L102.219 17.5417Z" fill="#05215C"/>
<path d="M133.519 18.2771C132.777 21.113 131.179 22.531 128.725 22.531C126.998 22.531 125.185 21.5271 123.286 19.5193C121.02 21.5271 118.774 22.531 116.546 22.531C115.077 22.531 113.784 22.1599 112.667 21.4177C111.549 20.6677 110.99 19.5037 110.99 17.9255C110.99 15.1521 113.124 12.6169 117.39 10.3201C116.562 8.47631 116.148 6.94116 116.148 5.7146C116.148 4.10522 116.683 2.85132 117.754 1.95288C118.832 1.04663 120.094 0.593506 121.54 0.593506C122.735 0.593506 123.728 0.948975 124.517 1.65991C125.306 2.36304 125.701 3.26538 125.701 4.36694C125.701 6.42163 124.005 8.28491 120.614 9.95679C121.927 12.2849 123.294 14.4177 124.716 16.3552C126.529 14.1912 127.436 12.3669 127.436 10.8826C127.436 9.82788 126.955 9.23804 125.994 9.11304V8.55054H132.499V9.11304C131.593 9.18335 130.905 9.41772 130.436 9.81616C129.975 10.2146 129.331 11.1638 128.502 12.6638C127.596 14.3044 126.576 15.8357 125.443 17.2576C127.092 19.1873 128.639 20.1521 130.085 20.1521C131.577 20.1521 132.531 19.3865 132.945 17.8552L133.519 18.2771ZM123.908 4.29663C123.908 3.57007 123.685 2.96069 123.239 2.46851C122.794 1.96851 122.22 1.71851 121.516 1.71851C120.751 1.71851 120.102 1.99194 119.571 2.53882C119.047 3.07788 118.785 3.73022 118.785 4.49585C118.785 5.41772 119.219 6.9021 120.086 8.94897C122.634 7.73804 123.908 6.18726 123.908 4.29663ZM122.489 18.6169C120.497 15.906 118.973 13.488 117.918 11.363C115.433 12.7927 114.19 14.5037 114.19 16.4958C114.19 17.6912 114.562 18.6833 115.304 19.4724C116.054 20.2615 117 20.656 118.141 20.656C119.36 20.656 120.809 19.9763 122.489 18.6169Z" fill="#05215C"/>
<path d="M161.488 17.1287C159.464 20.7302 156.573 22.531 152.814 22.531C149.688 22.531 147.203 21.4998 145.359 19.4373C143.523 17.3748 142.604 14.8591 142.604 11.8904C142.604 8.67163 143.624 5.98413 145.664 3.82788C147.711 1.67163 150.251 0.593506 153.283 0.593506C154.806 0.593506 156.299 0.9646 157.76 1.70679C158.206 1.93335 158.518 2.04663 158.698 2.04663C159.339 2.04663 159.769 1.56226 159.987 0.593506H160.538L161.019 7.73022H160.538C159.335 3.7146 156.998 1.70679 153.529 1.70679C150.974 1.70679 149.102 2.66772 147.914 4.5896C146.726 6.51147 146.133 8.95288 146.133 11.9138C146.133 15.0076 146.863 17.324 148.324 18.863C149.794 20.4021 151.677 21.1716 153.974 21.1716C155.522 21.1716 156.807 20.8279 157.831 20.1404C158.862 19.4451 159.925 18.3396 161.019 16.824L161.488 17.1287Z" fill="#05215C"/>
<path d="M186.363 20.7615C186.363 21.9099 185.793 22.4841 184.652 22.4841C183.503 22.4841 182.929 21.9099 182.929 20.7615C182.929 19.6208 183.503 19.0505 184.652 19.0505C185.793 19.0505 186.363 19.6208 186.363 20.7615Z" fill="#05215C"/>
<path d="M179.939 13.6448C179.939 16.1125 179.166 18.1938 177.619 19.8884C176.072 21.5831 174.124 22.4304 171.773 22.4304C170.177 22.4304 168.779 22.0562 167.579 21.3079C166.378 20.5595 165.426 19.5359 164.72 18.2371C164.021 16.932 163.672 15.4137 163.672 13.6819C163.672 11.1832 164.476 9.12362 166.085 7.50317C167.699 5.87655 169.66 5.06323 171.968 5.06323C173.49 5.06323 174.838 5.44051 176.014 6.19507C177.189 6.94963 178.136 7.97323 178.853 9.26587C179.577 10.5523 179.939 12.012 179.939 13.6448ZM177.136 13.9788C177.136 8.62882 175.336 5.95386 171.736 5.95386C170.746 5.95386 169.861 6.21672 169.082 6.74243C168.309 7.26196 167.681 8.10002 167.198 9.25659C166.716 10.4132 166.474 11.8728 166.474 13.6355C166.474 16.0476 166.935 17.9711 167.857 19.406C168.785 20.8409 170.081 21.5583 171.745 21.5583C173.502 21.5583 174.838 20.8842 175.754 19.5359C176.676 18.1814 177.136 16.329 177.136 13.9788Z" fill="#05215C"/>
</svg>
