<svg width="296" height="228" viewBox="0 0 296 228" fill="none" xmlns="http://www.w3.org/2000/svg">
<g clip-path="url(#clip0_1_110)">
<path d="M157.658 205.131C152.325 205.828 147.258 205.961 142.526 205.524C135.029 204.832 128.316 202.7 122.575 199.186C116.27 195.326 112.145 189.515 110.646 182.381C109.29 175.917 110.076 168.685 112.922 161.468L112.936 161.435L112.972 161.431C129.571 158.881 143.419 149.866 150.013 137.314C155.847 126.209 155.647 113.047 149.447 100.256L148.724 98.8227L148.83 98.7586C148.83 98.7586 148.816 98.7438 148.798 98.7438C148.781 98.7438 148.77 98.752 148.766 98.7569L148.817 98.6517L148.878 98.7487C163.542 123.35 193.221 131.847 221.003 128.216C229.883 127.055 238.563 124.657 246.505 121.151L246.57 121.123L246.589 121.19C248.522 127.635 248.434 134.433 246.326 141.389C244.48 147.486 241.076 153.754 236.206 160.017C225.318 174.024 210.306 183.992 204.357 187.628C196.939 192.162 181.882 200.313 164.377 203.986C162.095 204.464 159.85 204.849 157.653 205.135L157.658 205.131ZM113.028 161.549C108.175 173.884 108.153 190.21 122.641 199.08C133.563 205.767 147.599 207.375 164.356 203.861C181.843 200.193 196.886 192.048 204.296 187.518C210.239 183.887 225.236 173.928 236.111 159.938C246.611 146.431 250.104 133.428 246.492 121.292C229.971 128.572 210.454 130.916 192.939 127.723C183.578 126.015 175.119 122.816 167.799 118.213C160.166 113.413 153.943 107.178 149.291 99.6693L149.559 100.202C152.774 106.835 154.403 113.494 154.402 119.997C154.402 126.125 152.961 131.972 150.123 137.375C146.872 143.562 141.781 149.036 135.399 153.208C128.987 157.398 121.25 160.283 113.026 161.552L113.028 161.549Z" fill="white"/>
<path d="M148.061 97.58C147.903 97.6013 147.704 97.5685 147.464 97.483L147.443 97.4748L146.622 96.0348C143.295 90.3817 139.159 85.11 134.394 80.3051C126.468 84.4426 115.42 89.2672 103.194 91.8414C95.5833 93.4441 88.4333 93.957 81.9427 93.3685C74.6528 92.7077 68.1293 90.6447 62.5547 87.2355C56.411 83.4793 52.4002 77.8312 50.9564 70.9009C49.6474 64.6215 50.4302 57.591 53.2208 50.5702L53.2356 50.5341L53.2734 50.5308C70.5516 49.0333 89.3854 52.6036 106.305 60.5843C114.851 64.615 122.621 69.6237 129.4 75.4707C131.153 76.983 132.828 78.5413 134.423 80.1457C137.446 78.566 140.01 77.0882 142.008 75.8767C142.073 75.8373 142.141 75.7962 142.205 75.7567C142.2 75.6811 142.195 75.6071 142.19 75.5332C141.901 70.8269 142.246 65.9958 143.216 61.1745C145.075 51.9379 149.205 42.8361 155.165 34.8554C162.325 25.2654 172.159 17.0365 183.601 11.0612L183.668 11.0267L183.689 11.099C185.571 17.3997 185.464 24.044 183.37 30.8478C181.537 36.8082 178.174 42.9347 173.372 49.0563C162.792 62.547 148.347 72.1584 142.34 75.8225C142.662 80.6076 143.636 85.3007 145.28 89.7916C145.384 90.0727 145.714 90.6842 146.134 91.4584C147.632 94.2233 148.929 96.7613 148.357 97.4287C148.284 97.5126 148.184 97.5635 148.058 97.58H148.061ZM147.528 97.3728C147.893 97.4994 148.141 97.4912 148.265 97.3482C148.829 96.6923 147.074 93.454 146.027 91.5192C145.606 90.7401 145.272 90.1253 145.165 89.836C143.535 85.3878 142.544 80.7013 142.215 75.9014C142.167 75.931 142.119 75.9589 142.073 75.9869C140.08 77.1934 137.527 78.6663 134.517 80.241C139.342 85.1051 143.437 90.3751 146.73 95.9707L147.528 97.3728ZM53.3228 50.6541C48.5703 62.644 48.5193 78.5101 62.6204 87.1303C73.2172 93.6085 86.8596 95.1521 103.168 91.7198C115.363 89.1521 126.384 84.3424 134.3 80.2131C114.218 60.032 82.9523 48.0996 53.3228 50.6541ZM183.592 11.2092C172.195 17.1745 162.402 25.3755 155.267 34.9326C145.918 47.4536 141.444 61.9355 142.333 75.6827C166 61.2484 190.871 35.8006 183.592 11.2092Z" fill="white"/>
<path d="M221.28 128.39C218.103 128.806 214.888 129.057 211.647 129.143C203.214 129.366 195.023 128.452 187.302 126.424C170.184 121.928 156.862 112.379 148.775 98.8112C141.83 87.0793 139.875 73.4981 143.118 59.5339C146.084 46.7582 153.308 34.405 163.458 24.7492C169.001 19.4759 175.344 14.8979 182.306 11.1467C189.159 7.45469 196.495 4.62404 204.108 2.73201C219.777 -1.15889 235.741 -0.889304 250.278 3.50789C263.629 7.54674 275.314 15.562 283.183 26.0741C287.237 31.4889 290.18 37.4148 291.935 43.6876C293.785 50.3006 294.273 57.1866 293.389 64.1563C291.595 78.2948 284.714 91.6902 273.492 102.896C263.308 113.065 249.844 121.032 235.577 125.331C230.936 126.73 226.152 127.75 221.281 128.388L221.28 128.39ZM148.881 98.7471C166.322 128.007 205.677 134.209 235.539 125.212C261.403 117.421 289.281 95.5153 293.264 64.1415C296.682 37.211 278.99 12.3269 250.242 3.62789C221.017 -5.21582 186.176 3.30899 163.545 24.838C145.55 41.9583 133.287 72.3935 148.881 98.7471Z" fill="white"/>
<path d="M158.373 204.485C151.317 205.407 144.81 205.49 139.016 204.729C133.336 203.982 128.319 202.416 124.042 200.062C122.57 200.391 121.1 200.703 119.632 201C114.651 202.005 109.791 202.817 105.068 203.435C78.0881 206.963 55.3701 204.171 37.3749 195.096C29.7003 191.225 23.361 186.186 18.5362 180.119C14.0271 174.45 10.8138 167.859 8.98687 160.53C7.26843 153.639 6.77838 146.128 7.52825 138.208C8.24358 130.66 10.0706 122.86 12.9566 115.027L13.0042 114.899L13.07 115.018C26.4147 138.864 55.4885 157.088 87.1375 161.444C96.0701 162.673 104.761 162.67 112.973 161.431L113.079 161.414L111.967 164.458C107.557 178.015 110.722 190.404 120.436 197.603C121.579 198.449 122.786 199.227 124.055 199.93C150.046 194.131 175.804 183.51 200.688 168.328C217.188 158.26 233.534 145.994 247.629 132.205C247.895 128.584 247.578 124.898 246.476 121.221L246.459 121.169L246.51 121.146C254.848 117.431 263.113 112.133 270.343 105.556C286.025 82.7594 293.953 57.5367 287.281 32.1152L287.151 31.6187L287.398 32.0691C291.086 38.8203 293.278 46.4048 293.736 54.0042C294.581 68.0653 290.045 82.0936 280.616 94.5734C277.64 98.5137 274.211 102.242 270.427 105.682C269.021 107.716 267.54 109.746 265.984 111.774C260.702 118.665 254.593 125.498 247.732 132.202C247.474 135.626 246.683 139.175 245.361 142.828C243.1 149.077 239.355 155.495 234.235 161.902C225.44 172.904 213.825 182.652 200.644 190.09C187.531 197.489 173.188 202.429 159.164 204.377C158.901 204.413 158.636 204.449 158.375 204.484L158.373 204.485ZM124.22 200.022C132.828 204.742 144.274 206.201 158.329 204.365C158.6 204.329 158.871 204.293 159.146 204.255C187.646 200.3 216.379 184.043 234.136 161.828C240.273 154.152 246.757 143.554 247.62 132.315C243.575 136.261 239.27 140.161 234.718 144.001C224.302 152.786 212.558 161.237 200.754 168.438C188.044 176.194 174.87 182.859 161.601 188.249C149.22 193.279 136.668 197.229 124.22 200.022ZM13.0289 115.197C2.91887 142.749 4.02887 178.135 37.4325 194.982C58.5504 205.634 86.1985 207.617 119.607 200.875C121.033 200.588 122.455 200.287 123.879 199.97C122.643 199.281 121.47 198.525 120.362 197.703C115.34 193.981 111.969 188.761 110.615 182.606C109.379 176.984 109.804 170.695 111.847 164.419L112.886 161.569C104.695 162.793 96.0257 162.792 87.1194 161.567C72.1862 159.512 57.5013 154.349 44.6516 146.636C30.8744 138.368 19.9422 127.497 13.0256 115.195L13.0289 115.197ZM246.611 121.239C247.637 124.686 248.013 128.316 247.739 132.097C256.089 123.915 263.647 115.202 269.97 106.095C263.126 112.231 255.152 117.426 246.611 121.239ZM287.531 32.5836C290.93 45.9117 290.516 59.7739 286.298 73.7957C283.185 84.1418 277.985 94.654 270.805 105.133C284.833 92.1883 294.834 74.3924 293.609 54.014C293.163 46.6021 291.063 39.2033 287.531 32.5836Z" fill="white"/>
<path d="M105.736 203.594C88.0846 205.902 71.6073 205.312 56.6626 201.831C42.6486 198.566 23.7638 190.948 13.3858 173.205C5.28851 159.359 4.41859 142.306 10.73 121.072V121.068L12.9483 115.052C9.16939 108.229 6.95597 101.402 6.37055 94.7608C5.29673 82.5884 9.70055 71.8099 19.1084 63.5892C23.2771 59.9465 28.2844 56.9252 33.9906 54.614C39.4453 52.4031 45.2682 50.9417 51.2968 50.2711L51.4004 50.2596L51.3625 50.3565C46.4621 62.6868 46.3898 79.0082 60.8905 87.8404C71.8293 94.5044 85.8926 96.0775 102.686 92.5203C120.173 88.8152 135.249 80.6487 142.679 76.1118C148.635 72.474 163.665 62.506 174.576 48.5467C185.161 35.0066 188.688 21.9778 185.059 9.82507L185.044 9.77411L185.092 9.75109C188.958 7.85085 192.939 6.20868 196.929 4.87062C211.683 -0.0772574 227.984 -1.21971 242.832 1.65203C259.248 4.82788 272.854 12.6508 282.178 24.2758C287.559 30.9842 290.457 39.0471 290.789 48.2377C291.078 56.2348 289.435 65.1492 285.906 74.7343C278.181 95.7175 263.761 113.839 257.92 120.657C234.494 147.999 202.638 170.743 165.793 186.43C147.271 194.315 129.26 199.764 112.258 202.624C110.068 202.993 107.892 203.318 105.736 203.601V203.594ZM10.85 121.109C4.55179 142.308 5.41513 159.33 13.4943 173.143C23.8493 190.847 42.6996 198.449 56.6905 201.709C72.89 205.483 89.5992 205.534 105.623 203.44C128.109 200.501 149.243 193.337 165.745 186.311C202.573 170.631 234.412 147.899 257.826 120.574C263.662 113.762 278.071 95.6534 285.79 74.6899C293.444 53.9022 292.196 36.966 282.08 24.3547C261.274 -1.58628 223.376 -3.86789 196.968 4.98733C193.002 6.31717 189.04 7.94948 185.196 9.83822C187.105 16.2705 186.995 23.0512 184.87 29.993C183.004 36.0882 179.573 42.3561 174.676 48.6223C163.75 62.598 148.705 72.5759 142.744 76.2186C135.308 80.7605 120.219 88.9352 102.712 92.6436C94.8745 94.3038 87.5074 94.8414 80.8162 94.2414C73.3027 93.5691 66.577 91.4502 60.8263 87.9472C54.5182 84.104 50.4006 78.3063 48.9189 71.182C47.5836 64.7613 48.3762 57.5794 51.2096 50.4075C27.9983 53.0244 4.13575 68.0045 6.49717 94.751C7.08259 101.382 9.29602 108.201 13.0733 115.018L13.0865 115.042L13.0766 115.068L10.85 121.109Z" fill="white"/>
<path d="M148.812 98.8671C148.784 98.8704 148.758 98.8605 148.737 98.8375L148.715 98.8128L148.719 98.8013C145.287 92.2392 140.779 86.1407 135.448 80.6388C122.769 87.2683 109.135 91.6277 95.8349 93.2765C84.1627 94.7263 67.9715 94.5143 57.1148 85.2695C52.1831 81.0695 49.2692 75.5759 48.4535 68.9431C47.7399 63.1421 48.7068 56.7 51.2458 50.3089L51.2606 50.2743L51.2984 50.2694C60.3379 49.2897 69.8231 49.699 79.4941 51.4891C80.4659 51.6683 81.4345 51.8623 82.4015 52.0677C72.1927 49.9226 61.6683 49.2766 51.3494 50.3911C45.8159 64.3421 48.0013 77.343 57.1954 85.1741C68.0159 94.3893 84.1709 94.5997 95.8185 93.1532C109.273 91.4831 122.838 87.0579 135.334 80.5238C127.405 72.3705 117.658 65.5191 106.907 60.3772C107.014 60.4282 107.122 60.4791 107.229 60.5317C116.269 64.8615 124.396 70.2565 131.385 76.5655C132.792 77.8361 134.146 79.138 135.443 80.4679C137.54 79.3698 139.607 78.2109 141.638 76.9962C141.046 70.3847 141.749 63.5925 143.77 56.7773C149.46 37.5841 165.295 19.5663 185.094 9.75109L185.161 9.71822L185.183 9.7889C187.185 16.4957 186.715 23.8797 183.783 31.7321C181.432 38.0329 177.567 44.5095 172.298 50.9812C164.125 61.0216 153.634 69.9869 141.774 77.0931C142.465 84.6267 144.844 91.922 148.885 98.7471L148.901 98.775L148.888 98.8046C148.867 98.8523 148.835 98.8638 148.817 98.8671C148.817 98.8671 148.814 98.8671 148.812 98.8671ZM135.556 80.5813C139.895 85.0443 143.609 89.8294 146.658 94.8825C143.894 89.2146 142.221 83.2673 141.654 77.1638C140.455 77.8805 139.242 78.5791 138.015 79.2564C137.199 79.7068 136.38 80.1506 135.556 80.5813ZM185.081 9.8941C165.342 19.7011 149.562 37.6712 143.889 56.8101C141.879 63.5892 141.174 70.3436 141.756 76.9222C153.438 69.9179 163.935 61.0512 172.198 50.9006C180.572 40.6153 189.595 25.1569 185.081 9.8941Z" fill="white"/>
<path d="M110.837 162.085C104.151 162.959 97.0501 162.964 89.7126 162.1C75.7562 160.454 60.9464 155.577 48.0128 148.364C26.1302 136.16 2.18216 112.233 6.70273 84.9604C7.74531 78.6712 10.2597 73.0329 14.1767 68.2018C17.7222 63.8292 22.4072 60.1191 28.1019 57.1767C33.2687 54.5055 39.1542 52.5149 45.5955 51.259C51.4629 50.1149 57.7529 49.6168 63.7863 49.8207C80.0696 50.3697 97.2014 55.0841 112.026 63.0961C127.948 71.7014 140.411 83.5369 148.067 97.3235C151.184 102.985 153.159 108.889 153.938 114.875C154.714 120.83 154.274 126.605 152.627 132.036C149.58 142.091 142.652 150.17 132.59 155.403C126.321 158.662 119.332 160.865 111.816 161.95C111.492 161.998 111.163 162.042 110.837 162.085ZM50.1983 50.59C29.4306 53.3055 10.286 64.1152 6.82607 84.9818C2.31536 112.189 26.2272 136.071 48.0737 148.255C70.9298 161.003 105.119 169.546 132.531 155.293C142.562 150.077 149.47 142.022 152.506 132.001C155.826 121.042 154.211 108.75 147.957 97.386C132.858 70.199 99.0301 51.1341 63.7814 49.9472C59.274 49.796 54.6975 50.0031 50.1983 50.5916V50.59Z" fill="white"/>
<path d="M218.64 128.331C217.604 128.466 216.57 128.584 215.532 128.684C201.732 130.017 188.496 128.142 177.256 123.26C171.259 120.656 165.822 117.197 161.096 112.984C156.107 108.536 151.868 103.202 148.498 97.1329C144.655 90.1631 142.524 82.6607 142.167 74.8362C141.835 67.5623 143.029 60.1323 145.718 52.7499C148.266 45.7539 152.057 39.0488 156.985 32.8187C161.807 26.7251 167.465 21.3975 173.805 16.9839C179.984 12.6804 186.789 9.12644 194.028 6.41744C201.264 3.71008 208.782 1.90518 216.371 1.05533C232.327 -0.733141 247.772 1.77532 261.034 8.30783C267.211 11.3505 272.72 15.3285 277.41 20.1334C282.022 24.8594 285.709 30.2478 288.37 36.1458C291.058 42.1095 292.616 48.4168 292.996 54.8935C293.39 61.6068 292.506 68.3464 290.368 74.9233C287.993 82.2317 284.206 89.1834 279.113 95.586C274.272 101.67 268.332 107.167 261.458 111.919C248.946 120.57 233.85 126.342 218.64 128.331ZM148.608 97.0704C161.32 119.96 185.707 131.438 215.521 128.559C250.344 125.196 281.07 103.125 290.248 74.8839C298.832 48.4678 286.796 21.1361 260.98 8.41961C234.828 -4.46131 199.823 -0.979712 173.877 17.0858C149.577 34.0055 132.46 67.7875 148.608 97.0704Z" fill="white"/>
<path d="M104.422 201.576C77.6507 205.077 55.1629 202.358 37.4226 193.452C29.7201 189.586 23.3528 184.569 18.4951 178.538C13.9466 172.891 10.6955 166.331 8.83397 159.039C8.56428 157.98 8.32255 156.908 8.11206 155.824C11.3286 172.124 21.2989 185.218 37.4802 193.34C58.3531 203.818 85.817 205.72 119.105 198.992C146.55 193.445 173.805 182.461 200.109 166.346C250.646 135.386 299.73 83.5648 285.933 30.9645C282.001 24.3366 276.693 18.5964 270.153 13.9017C247.162 -2.59722 212.428 -3.70186 183.706 11.15C185.64 17.671 185.176 24.8462 182.326 32.4768C180.035 38.6131 176.271 44.9221 171.139 51.2278C162.514 61.8238 151.205 71.2116 138.434 78.3753C125.711 85.5127 111.807 90.2962 98.2293 92.2047C90.1896 93.334 81.7075 92.9181 74.3388 91.031C66.2678 88.9647 59.8068 85.2497 55.653 80.2871C52.8788 76.9731 51.139 73.1217 50.4828 68.8396C49.7691 64.1909 50.3348 59.0096 52.1634 53.442L53.1846 50.6639C44.7536 51.4267 37.1677 53.3779 30.636 56.4617C20.1099 61.4309 12.7428 69.4116 9.33224 79.5391C5.7342 90.2256 6.97575 102.294 12.8283 113.525L12.8415 113.55L12.8316 113.576C8.52975 125.25 6.62713 136.3 7.02015 146.386C6.59753 136.088 8.50837 124.949 12.7034 113.558C6.84584 102.304 5.60593 90.2091 9.2122 79.4997C10.8682 74.5798 13.4943 70.1168 17.0151 66.2341C20.6806 62.1936 25.2439 58.8682 30.5801 56.3482C37.1513 53.2464 44.7848 51.2886 53.2702 50.5308L53.3688 50.5226L52.2786 53.4831C48.7463 64.2467 49.9122 73.2384 55.745 80.2065C64.8553 91.0902 83.2369 94.0392 97.6389 92.157C97.8297 92.1324 98.0188 92.1061 98.2079 92.0798C125.728 88.2102 153.636 72.525 171.037 51.1472C179.207 41.1117 188.011 26.0232 183.566 11.1335L183.551 11.0842L183.597 11.0596C190.251 7.61414 197.386 4.95774 204.802 3.16434C212.327 1.34464 219.953 0.460269 227.465 0.537528C243.577 0.70191 258.36 5.2865 270.22 13.7982C276.776 18.5027 282.1 24.2594 286.04 30.9053L286.046 30.9217C289.56 44.3106 289.199 58.2501 284.974 72.3524C281.243 84.8059 274.473 97.5027 264.853 110.091C256.509 121.009 246.081 131.788 233.861 142.126C223.536 150.862 211.885 159.274 200.168 166.451C187.465 174.233 174.309 180.918 161.063 186.323C147.163 191.994 133.052 196.297 119.124 199.113C114.088 200.131 109.183 200.951 104.417 201.576H104.422Z" fill="white"/>
<path d="M156.967 206.075C151.716 206.762 146.709 206.915 142.016 206.527C134.351 205.896 127.448 203.818 121.5 200.348C120.789 199.934 120.105 199.496 119.448 199.038C117.415 199.447 115.386 199.827 113.358 200.177C98.3362 202.771 84.4192 203.583 71.9954 202.592C56.758 201.375 43.5186 197.422 32.6455 190.84C26.3506 187.03 21.1065 182.337 17.0611 176.891C13.2542 171.765 10.4636 165.92 8.76655 159.516C5.63882 147.706 6.23575 133.888 10.4965 119.556V119.553L12.7642 113.402L12.83 113.527C16.4099 120.327 21.363 126.784 27.5494 132.718C49.455 153.733 82.2157 164.93 111.008 161.242L111.113 161.228L111.074 161.327C105.045 176.606 108.369 191.065 119.48 198.903C168.186 189.081 215.508 162.826 249.37 127.054C249.183 124.662 248.739 122.3 248.04 119.969L248.025 119.918L248.074 119.895C253.476 117.352 258.517 114.368 263.141 110.98C278.982 90.2979 293.88 61.2402 285.934 30.9563L285.819 30.5157L286.049 30.9086C292.968 42.7029 294.836 56.3236 291.448 70.2993C288.35 83.0799 280.971 95.3789 270.672 104.933C268.334 107.101 265.854 109.147 263.239 111.064C261.723 113.042 260.14 115.018 258.492 116.993C255.622 120.431 252.62 123.807 249.492 127.114C249.817 131.502 249.29 136.011 247.91 140.59C246.03 146.83 242.562 153.246 237.599 159.659C226.488 174.019 211.176 184.224 205.108 187.944C197.524 192.594 182.142 200.969 164.324 204.799C161.827 205.337 159.373 205.763 156.97 206.076L156.967 206.075ZM119.62 199.003C120.243 199.437 120.89 199.85 121.561 200.241C145.464 214.182 180.354 202.975 205.038 187.837C211.099 184.12 226.396 173.925 237.494 159.581C246.159 148.385 250.136 137.534 249.38 127.226C242.903 134.064 235.894 140.603 228.436 146.758C217.522 155.766 205.643 163.96 193.125 171.113C180.654 178.239 167.561 184.326 154.211 189.204C142.789 193.378 131.182 196.666 119.62 199.003ZM10.6149 119.592C1.36655 150.708 9.4194 176.639 32.7097 190.733C50.8035 201.684 74.9818 205.251 104.662 201.372C107.506 201 110.393 200.561 113.337 200.054C115.327 199.71 117.32 199.337 119.306 198.939C113.83 195.068 110.189 189.637 108.718 183.096C107.211 176.402 107.973 168.897 110.919 161.381C96.5305 163.206 81.053 161.432 66.1544 156.251C51.5254 151.163 38.1446 143.058 27.4622 132.808C21.3038 126.901 16.3672 120.477 12.7856 113.709L10.6166 119.594L10.6149 119.592ZM248.175 119.985C248.854 122.263 249.288 124.586 249.474 126.943C252.56 123.677 255.537 120.332 258.392 116.913C259.878 115.131 261.378 113.269 262.868 111.332C258.347 114.611 253.432 117.506 248.175 119.985ZM286.166 31.3672C289.827 45.7161 288.689 61.0232 282.782 76.8729C278.626 88.0196 272.157 99.3717 263.509 110.707C265.992 108.868 268.352 106.91 270.582 104.842C288.797 87.9472 301.376 57.8046 286.166 31.3672Z" fill="white"/>
<path d="M157.803 205.43C157.352 205.49 156.905 205.546 156.454 205.598C144.576 206.994 128.097 206.675 117.05 197.233C111.988 192.906 108.989 187.258 108.135 180.446C107.389 174.481 108.364 167.853 110.956 161.281L110.969 161.246L111.005 161.242C128.599 158.939 142.573 150.816 149.345 138.958C156.096 127.139 155.423 112.072 147.507 97.5981C147.479 97.5717 147.449 97.5438 147.421 97.5126L147.398 97.4879L147.406 97.455C147.411 97.437 147.416 97.4189 147.424 97.4008L147.474 97.2775L147.538 97.3942C147.561 97.4353 147.584 97.4781 147.607 97.5191C147.732 97.6244 147.854 97.6687 147.972 97.649C148.164 97.6161 148.349 97.4139 148.495 97.077L148.546 96.9603L148.608 97.072C167.472 131.043 214.926 135.37 248.073 119.895L248.138 119.863L248.16 119.933C250.225 126.82 249.762 134.4 246.78 142.461C244.386 148.933 240.439 155.59 235.049 162.249C216.511 185.152 187.018 201.61 157.803 205.43ZM111.061 161.362C105.419 175.692 107.688 189.065 117.132 197.137C128.145 206.55 144.586 206.866 156.439 205.473C186.062 201.995 216.147 185.402 234.95 162.17C243.506 151.599 252.72 135.715 248.06 120.038C239.969 123.805 230.783 126.462 221.485 127.723C221.334 127.744 221.179 127.764 221.028 127.783C211.53 129.026 202.193 128.844 193.27 127.244C183.65 125.52 175.003 122.217 167.574 117.429C159.547 112.256 153.15 105.464 148.561 97.2397C148.403 97.5537 148.21 97.7361 147.995 97.7723C147.905 97.7871 147.817 97.7772 147.73 97.7411C151.304 104.338 153.456 111.358 153.961 118.068C154.537 125.73 153.022 132.779 149.457 139.02C145.798 145.426 140.242 150.665 132.939 154.589C126.658 157.964 119.094 160.306 111.061 161.362Z" fill="white"/>
<path d="M110.441 161.516C100.208 162.854 89.2423 162.252 78.1407 159.703C63.7074 156.387 49.6918 150.008 37.6101 141.256C32.6258 137.645 27.7993 133.336 23.6537 128.796C19.0377 123.74 15.2703 118.451 12.4567 113.076C9.32727 107.098 7.44767 101.122 6.86719 95.3148C6.22421 88.8678 7.19114 82.618 9.74167 76.7381C12.3037 70.8335 16.229 65.7952 21.4107 61.7613C26.0776 58.1285 31.769 55.2995 38.3271 53.3516C44.2207 51.6025 50.7179 50.585 57.6378 50.3302C63.8439 50.1017 70.3641 50.5127 76.4963 51.5171C91.1828 53.9253 105.503 59.3153 117.908 67.107C131.373 75.5628 141.884 86.5286 148.306 98.821C154.579 110.944 155.436 123.772 150.718 134.942C148.367 140.51 144.759 145.41 139.993 149.508C135.088 153.726 129.165 156.907 122.388 158.963C118.55 160.127 114.555 160.979 110.441 161.516ZM49.9138 51.1094C32.4284 53.3959 16.5809 61.2879 9.85679 76.789C-0.22366 100.028 16.5694 125.862 37.6841 141.156C58.0867 155.934 91.0414 168.34 122.352 158.845C135.765 154.776 145.8 146.27 150.603 134.894C155.305 123.759 154.449 110.97 148.194 98.8802C133.248 70.2713 101.345 55.7203 76.4749 51.6436C67.8366 50.2267 58.6688 49.9653 49.9122 51.111L49.9138 51.1094Z" fill="white"/>
<path d="M148.815 98.8682L148.735 98.8387L148.722 98.8043V98.7798L148.789 98.7962L148.783 98.7929H148.791L148.792 98.7847L148.789 98.7765L148.765 98.7732H148.789L148.786 98.7683L148.768 98.7601L148.784 98.7667L148.774 98.747L148.787 98.7421H148.792V98.7487L148.799 98.7667L148.807 98.7716L148.824 98.752L148.809 98.7732L148.822 98.7781L148.838 98.7716L148.825 98.7781L148.887 98.7683L148.883 98.8076L148.848 98.8502L148.814 98.8665L148.815 98.8682ZM148.796 98.8027H148.801L148.797 98.8011L148.796 98.8027Z" fill="white"/>
<path d="M147.847 97.8298H147.691L147.581 97.8035L147.51 97.7657L147.452 97.7115L147.415 97.6441L147.401 97.5931L147.398 97.5126L147.426 97.4024L147.543 97.4452L147.523 97.5586L147.544 97.6243L147.597 97.672L147.684 97.7032L147.806 97.7082L147.832 97.7049L148.002 97.6638L148.181 97.5783L148.334 97.4633L148.442 97.335L148.497 97.2117L148.5 97.1444L148.493 97.1164L148.615 97.0852L148.625 97.1312L148.623 97.2117L148.592 97.3219L148.531 97.4287L148.419 97.5553L148.278 97.6654L148.084 97.7674L147.882 97.8249L147.847 97.8298Z" fill="white"/>
<path d="M163.57 147.489C162.539 147.624 161.521 147.688 160.522 147.68C156.609 147.649 153.297 146.158 151.661 143.694C150.314 141.665 150.207 139.131 151.348 136.364L151.465 136.412C150.34 139.139 150.444 141.632 151.766 143.625C153.377 146.054 156.653 147.524 160.524 147.555C168.501 147.619 177.666 142.943 182.81 136.18C185.635 132.467 186.64 129.044 185.798 126.008L185.919 125.975C186.773 129.051 185.76 132.511 182.91 136.257C180.471 139.464 176.937 142.369 172.961 144.437C169.853 146.053 166.658 147.088 163.571 147.493L163.57 147.489Z" fill="white"/>
<path d="M123.69 74.583C122.745 74.7063 121.807 74.7688 120.885 74.7671C117.109 74.7556 113.914 73.3354 112.337 70.9667C111.048 69.0286 110.949 66.6073 112.051 63.9607L112.166 64.0084C111.082 66.6138 111.178 68.9957 112.442 70.8976C113.995 73.2318 117.152 74.6324 120.886 74.6422C128.52 74.6636 137.275 70.1809 142.177 63.7405C144.882 60.1849 145.849 56.9137 145.052 54.0157L145.173 53.9828C145.982 56.9203 145.007 60.2276 142.277 63.8161C137.946 69.5086 130.615 73.6789 123.692 74.5847L123.69 74.583Z" fill="white"/>
<path d="M160.32 197.476C149.552 198.883 136.662 198.436 127.231 191.376C122.503 187.837 119.513 182.821 118.587 176.873C117.759 171.558 118.543 165.655 120.857 159.802L120.974 159.848C117.04 169.806 116.637 183.29 127.308 191.276C136.706 198.309 149.564 198.755 160.305 197.351C162.412 197.077 164.435 196.73 166.336 196.348C187.5 192.099 208.078 180.599 222.794 164.797C230.38 156.652 242.394 140.603 237.632 124.616L237.752 124.58C242.533 140.626 230.49 156.718 222.886 164.883C208.152 180.703 187.551 192.216 166.36 196.47C164.458 196.851 162.43 197.2 160.322 197.474L160.32 197.476Z" fill="white"/>
<path d="M100.666 86.642C99.9312 86.7374 99.1995 86.8245 98.4677 86.9001C91.4393 87.6316 84.4883 86.9905 78.3644 85.0475C71.9559 83.0141 66.8319 79.6443 63.5496 75.303C58.5356 68.6735 57.9436 60.0106 61.841 50.2546L61.9577 50.3006C58.0785 60.0139 58.6639 68.6341 63.6499 75.2274C70.1109 83.7703 83.7729 88.3039 98.4545 86.7752C99.1912 86.6979 99.9329 86.6108 100.671 86.5155C124.471 83.4037 148.574 70.1086 164.038 51.4464C171.42 42.5386 179.407 29.1333 175.533 15.8661L175.653 15.8316C179.542 29.153 171.535 42.5961 164.134 51.5269C156.347 60.9246 146.143 69.1815 134.629 75.4049C123.741 81.2898 112.048 85.1544 100.666 86.642Z" fill="white"/>
<path d="M143.338 225.253C140.283 225.653 137.239 225.958 134.21 226.17C122.988 226.953 112.732 226.243 103.728 224.058C92.722 221.389 83.8206 216.539 77.2692 209.642C70.9611 202.999 67.4666 194.701 66.8829 184.978C66.3928 176.812 67.937 167.777 71.4742 158.125L71.5925 158.168C66.1281 173.085 62.6912 194.111 77.3613 209.555C92.4194 225.408 116.583 227.272 134.203 226.042C137.212 225.832 140.237 225.528 143.261 225.133C187.874 219.303 233.431 193.626 261.384 158.025C273.58 142.494 286.725 118.987 280.092 95.1997L280.213 95.1652C283.111 105.557 282.491 116.793 278.368 128.561C274.996 138.189 269.316 148.127 261.483 158.102C246.887 176.69 227.259 192.916 204.72 205.023C184.946 215.645 163.905 222.562 143.338 225.252V225.253Z" fill="white"/>
<path d="M89.1437 128.761C81.4954 129.761 74.2467 130.083 67.5028 129.716C56.411 129.115 46.5641 126.641 38.2383 122.364C32.5699 119.453 27.8964 115.682 24.3444 111.159C21.0259 106.933 18.6677 102.026 17.3357 96.5789C14.8757 86.5204 15.9265 74.8345 20.373 62.7854L20.4914 62.8281C10.7267 89.2919 17.3834 111.506 38.2975 122.25C51.7408 129.156 68.7641 131.303 88.9941 128.658C91.857 128.283 94.7809 127.813 97.7705 127.247C139.253 119.392 178.22 96.8797 204.676 65.4829C218.14 49.5034 232.732 25.2785 225.772 0.623006L225.892 0.588486C228.926 11.339 228.073 23.0232 223.355 35.3206C219.528 45.2936 213.276 55.4688 204.771 65.5634C198.197 73.3666 190.706 80.7457 182.509 87.4968C174.467 94.1197 165.716 100.162 156.498 105.457C147.347 110.714 137.717 115.246 127.88 118.923C117.986 122.622 107.864 125.464 97.7935 127.371C94.8598 127.926 91.9754 128.39 89.1453 128.76L89.1437 128.761Z" fill="white"/>
<path d="M117.372 218.147C114.73 218.492 112.1 218.778 109.485 219.005C95.1558 220.248 82.0677 219.669 70.5845 217.282C56.5229 214.361 44.8818 208.712 35.987 200.491C26.8554 192.053 21.6524 181.201 20.5194 168.236C20.0244 162.562 20.3171 156.466 21.3942 150.121C22.376 144.328 24.0122 138.299 26.2569 132.199L26.3753 132.241C20.3056 148.739 13.4927 179.532 36.0725 200.399C56.3897 219.173 87.2033 220.812 109.476 218.879C112.145 218.647 114.825 218.356 117.509 218.004C143.595 214.595 170.309 205.564 197.052 191.103C226.575 175.14 250.727 155.495 268.835 132.712C289.207 107.084 298.144 82.8991 295.403 60.826C295.002 57.6008 294.189 54.5039 293.403 51.5105L293.525 51.4793C294.313 54.4776 295.127 57.5778 295.528 60.8112C297.028 72.8866 294.962 85.807 289.389 99.209C284.849 110.127 277.967 121.425 268.934 132.79C259.641 144.48 248.553 155.518 235.978 165.596C224.264 174.984 211.188 183.602 197.111 191.213C183.084 198.798 168.812 204.977 154.693 209.579C142.144 213.671 129.625 216.541 117.374 218.144L117.372 218.147Z" fill="white"/>
<path d="M96.3315 180.859C83.1711 182.58 70.9298 182.785 59.8775 181.465C44.599 179.642 31.6786 174.89 21.4731 167.338C10.4126 159.154 3.80194 148.068 1.82696 134.391C0.147983 122.765 1.94372 109.343 7.02176 95.5778L7.14016 95.6205C-4.08646 126.052 1.16589 152.155 21.5488 167.237C43.2916 183.324 73.4096 183.726 96.4286 180.716C98.0664 180.502 99.6632 180.27 101.224 180.027C156.013 171.453 209.793 141.226 245.083 99.1695C262.131 78.852 280.67 47.8251 272.172 15.3894L272.294 15.3581C275.992 29.4735 274.887 44.5506 269.006 60.1701C264.167 73.028 256.15 86.1752 245.18 99.2501C236.437 109.67 226.415 119.515 215.394 128.508C204.557 137.354 192.762 145.372 180.335 152.342C167.941 159.294 154.946 165.187 141.713 169.855C128.321 174.579 114.705 178.045 101.242 180.15C99.5925 180.408 97.953 180.643 96.3315 180.855V180.859Z" fill="white"/>
<path d="M95.9945 179.215C95.3729 179.296 94.7545 179.374 94.1346 179.448C70.8394 182.259 38.5836 181.669 17.2108 162.898C7.63681 154.49 2.09668 143.631 0.743297 130.622C0.148008 124.894 0.373297 118.737 1.41588 112.322C2.37294 106.43 4.02232 100.291 6.31467 94.0754L6.43307 94.1181C0.277919 110.803 -6.49719 141.912 17.293 162.805C38.6313 181.546 70.8493 182.133 94.1198 179.325C94.7545 179.248 95.3926 179.169 96.0273 179.085C123.366 175.511 151.123 165.958 178.569 150.673C204.871 136.025 226.947 118.179 244.18 97.6276C259.285 79.6164 276.596 52.1713 273.284 23.7186C272.887 20.3109 272.04 17.0808 271.222 13.956L271.343 13.9247C272.162 17.0529 273.011 20.2863 273.409 23.7038C274.859 36.1688 272.481 49.5198 266.339 63.3887C261.352 74.6504 253.929 86.1966 244.276 97.7082C235.481 108.196 225.254 118.124 213.88 127.223C203.14 135.812 191.28 143.738 178.629 150.784C165.194 158.265 151.44 164.465 137.75 169.209C123.756 174.058 109.717 177.423 95.9928 179.217L95.9945 179.215Z" fill="white"/>
<path d="M117.574 218.624C104.353 220.353 92.0708 220.562 80.9971 219.243C65.6758 217.42 52.7192 212.652 42.4891 205.072C31.4302 196.878 24.8146 185.785 22.8281 172.102C21.1377 160.466 22.9235 147.034 27.9884 133.262L28.1068 133.305C16.9081 163.745 22.1786 189.865 42.5648 204.97C64.3421 221.106 94.5769 221.5 117.685 218.479C119.314 218.265 120.904 218.037 122.458 217.794C177.057 209.264 230.642 179.144 265.798 137.225C282.895 116.837 301.489 85.7166 292.963 53.2348L293.084 53.2036C296.799 67.3585 295.691 82.4733 289.792 98.1306C284.943 111.002 276.901 124.182 265.895 137.308C257.198 147.678 247.218 157.482 236.231 166.446C225.43 175.26 213.671 183.252 201.278 190.202C188.919 197.134 175.965 203.009 162.78 207.664C149.432 212.376 135.872 215.826 122.478 217.919C120.83 218.177 119.194 218.41 117.574 218.622V218.624Z" fill="white"/>
<path d="M89.8113 126.583C89.2325 126.659 88.6569 126.731 88.0797 126.8C76.7462 128.15 66.3352 128.033 57.1329 126.45C45.806 124.501 36.4146 120.325 29.2185 114.036C21.9237 107.66 17.7205 99.3684 16.7256 89.3889C15.8952 81.0498 17.3818 71.422 21.0242 61.5443L21.1426 61.5871C16.4313 74.3595 11.2283 98.1454 29.3023 113.942C45.7271 128.298 70.323 128.791 88.0649 126.677C88.6372 126.61 89.2144 126.537 89.7867 126.462C132.61 120.865 176.21 96.694 203.951 63.0879C214.588 50.2004 231.322 24.8873 223.881 0.15123L224.001 0.115067C227.088 10.3757 226.346 21.6901 221.796 33.7409C218.14 43.4262 212.168 53.3269 204.046 63.1668C190.236 79.8991 172.231 94.6326 151.981 105.774C132.172 116.673 110.714 123.851 89.8097 126.585L89.8113 126.583Z" fill="white"/>
<path d="M142.483 224.421C134.756 225.432 127.428 225.748 120.615 225.363C109.538 224.737 99.7043 222.242 91.3883 217.948C85.7249 215.024 81.0497 211.243 77.4944 206.711C74.1694 202.475 71.8047 197.56 70.4611 192.106C67.9813 182.028 69.0058 170.324 73.4261 158.256L73.5445 158.299C63.8439 184.781 70.5368 207.038 91.4459 217.836C106.79 225.759 126.78 227.482 150.863 222.955C191.676 215.285 231.553 192.242 257.53 161.315C270.95 145.339 285.477 121.111 278.477 96.4096L278.597 96.3751C281.644 107.129 280.817 118.818 276.138 131.115C272.335 141.111 266.106 151.298 257.625 161.396C251.075 169.194 243.608 176.567 235.433 183.311C227.414 189.928 218.683 195.96 209.484 201.247C200.351 206.496 190.741 211.015 180.92 214.679C171.044 218.364 160.938 221.191 150.884 223.08C148.036 223.616 145.232 224.063 142.481 224.423L142.483 224.421Z" fill="white"/>
<path d="M101.165 85.0689C100.459 85.161 99.7553 85.2432 99.0531 85.3171C92.2468 86.0273 85.5078 85.4075 79.5665 83.5254C73.3406 81.5528 68.3678 78.2849 65.1858 74.0751C60.3396 67.6642 59.7756 59.289 63.5529 49.8568L63.6696 49.9028C59.9088 59.2923 60.4679 67.6248 65.2861 73.9995C71.5482 82.2843 84.7974 86.6782 99.04 85.1922C99.752 85.1182 100.469 85.0344 101.181 84.9407C124.748 81.8602 148.413 68.5585 163.387 49.8667C170.05 41.549 177.228 29.0199 173.583 16.5778L173.703 16.5433C175.299 21.9942 174.941 27.9711 172.637 34.308C170.776 39.4268 167.697 44.6887 163.484 49.9472C155.961 59.34 145.997 67.6001 134.67 73.8351C123.953 79.7347 112.414 83.5993 101.163 85.0706L101.165 85.0689Z" fill="white"/>
<path d="M161.121 195.446C160.338 195.548 159.559 195.638 158.779 195.719C151.758 196.436 144.815 195.781 138.697 193.825C132.304 191.779 127.185 188.401 123.894 184.054C118.856 177.399 118.24 168.713 122.116 158.939L122.233 158.985C118.375 168.716 118.984 177.359 123.994 183.979C130.469 192.533 144.117 197.093 158.766 195.596C183.239 193.095 208.308 179.591 224.189 160.357C231.543 151.451 239.489 138.044 235.591 124.749L235.711 124.714C239.625 138.064 231.658 151.51 224.286 160.438C216.532 169.829 206.36 178.074 194.868 184.284C184.051 190.13 172.433 193.967 161.121 195.446Z" fill="white"/>
<path d="M124.623 74.2378C123.769 74.3496 122.926 74.4055 122.097 74.4039C118.68 74.3973 115.677 73.0658 114.259 70.9272C113.097 69.1732 113.013 66.982 114.019 64.5919L114.134 64.6413C113.144 66.9919 113.223 69.142 114.363 70.8598C115.757 72.9639 118.721 74.274 122.097 74.2789C129.013 74.2904 136.93 70.2253 141.348 64.3914C143.792 61.1646 144.67 58.1992 143.955 55.574L144.076 55.5411C144.802 58.2041 143.917 61.2073 141.449 64.467C139.352 67.2335 136.298 69.7502 132.848 71.5518C130.123 72.9737 127.323 73.8844 124.624 74.2378H124.623Z" fill="white"/>
<path d="M162.999 145.551C162.045 145.676 161.101 145.739 160.171 145.735C156.4 145.719 153.205 144.294 151.628 141.923C150.335 139.982 150.232 137.556 151.328 134.906L151.443 134.954C150.363 137.562 150.463 139.949 151.731 141.854C153.287 144.19 156.441 145.596 160.171 145.611C161.095 145.614 162.035 145.551 162.984 145.428C169.861 144.529 177.131 140.388 181.427 134.728C184.125 131.175 185.087 127.9 184.285 124.999L184.406 124.966C185.219 127.907 184.25 131.217 181.527 134.804C177.212 140.488 169.906 144.649 162.997 145.553L162.999 145.551Z" fill="white"/>
<path d="M239.101 137.72C233.947 138.394 228.676 138.651 223.418 138.465C216.131 138.207 208.777 137.155 201.563 135.338C194.133 133.468 187.041 130.831 180.483 127.502C166.211 120.258 155.04 109.978 148.179 97.7756C146.578 94.9416 145.246 92.0255 144.219 89.1061C142.064 82.9747 141.236 76.7299 141.763 70.5442C142.259 64.7021 143.95 59.0063 146.785 53.6146C152.259 43.206 161.725 34.5299 173.435 29.1859C186.827 23.0725 202.403 20.6249 218.478 22.1027C233.968 23.5279 249.003 28.4642 261.955 36.3792C267.572 39.8115 272.741 43.921 277.319 48.5927C282.136 53.511 286.064 58.8238 288.995 64.3848C295.62 76.96 296.674 90.0151 292.045 102.138C289.588 108.572 285.775 114.345 280.708 119.298C276.063 123.84 270.375 127.69 263.803 130.742C256.357 134.199 247.903 136.57 239.101 137.72ZM197.302 22.5942C188.965 23.684 180.914 25.9098 173.486 29.2993C152.665 38.8022 134.664 61.5558 144.336 89.0634C145.361 91.9762 146.689 94.8858 148.288 97.7131C161.519 121.248 191.01 137.194 223.422 138.34C228.476 138.519 233.702 138.279 238.916 137.597C261.406 134.658 283.76 123.488 291.927 102.096C301.978 75.7699 283.402 49.6316 261.889 36.486C242.376 24.5635 218.882 19.7734 197.302 22.5942Z" fill="white"/>
<path d="M238.934 137.324C237.744 137.48 236.547 137.61 235.346 137.717C228.056 138.358 220.571 138.172 213.095 137.165C205.551 136.147 198.169 134.314 191.155 131.714C176.279 126.197 163.678 117.447 154.714 106.407C152.586 103.785 150.695 101.053 149.092 98.2852C145.867 92.7209 143.787 86.8327 142.905 80.7851C142.054 74.9332 142.343 69.0746 143.766 63.3722C145.178 57.7093 147.665 52.3735 151.154 47.516C154.716 42.5566 159.225 38.24 164.553 34.6844C176.424 26.7645 191.234 22.4315 207.384 22.1553C214.883 22.0271 222.521 22.7701 230.087 24.3646C237.504 25.9278 244.675 28.2686 251.401 31.3228C275.645 42.3331 298.146 65.8001 293.762 93.408C292.711 100.023 290.22 106.174 286.357 111.689C282.813 116.748 278.131 121.259 272.443 125.099C263.068 131.426 251.284 135.71 238.931 137.324H238.934ZM197.246 22.9936C185.26 24.5602 174.043 28.5053 164.625 34.7896C142.822 49.3374 136.336 76.0148 149.202 98.2227C150.8 100.984 152.688 103.711 154.813 106.328C172.468 128.071 204.074 140.342 235.336 137.594C236.524 137.49 237.716 137.359 238.91 137.202C263.751 133.956 289.493 119.51 293.642 93.3899C298.016 65.8462 275.555 42.4284 251.353 31.4379C233.833 23.4819 214.725 20.7087 197.246 22.9936Z" fill="white"/>
<path d="M250.327 152.85C249.429 152.967 248.523 153.064 247.607 153.139C236.162 154.078 223.552 152.094 210.129 147.246C197.138 142.553 184.928 135.707 173.838 126.896C162.588 117.958 153.881 108.03 147.956 97.3876C146.5 94.746 145.259 92.1291 144.269 89.6075C141.888 83.55 140.73 77.3808 140.921 71.7672C141.143 65.2347 143.128 59.5422 146.823 54.8458C150.315 50.4059 155.158 47.0278 161.218 44.807C166.354 42.9249 172.234 41.9024 178.698 41.7676C190.591 41.521 203.418 44.1725 216.822 49.6513C229.875 54.9855 241.858 62.335 252.439 71.496C263.379 80.9692 271.462 91.1757 276.459 101.833C279.195 107.666 280.832 113.39 281.323 118.848C281.901 125.247 280.855 131.041 278.215 136.068C275.456 141.323 271.077 145.495 265.204 148.466C260.916 150.636 255.818 152.135 250.329 152.852L250.327 152.85ZM148.066 97.3252C153.981 107.952 162.678 117.87 173.915 126.797C184.993 135.6 197.192 142.44 210.17 147.128C223.575 151.97 236.169 153.951 247.596 153.014C256.015 152.324 271.175 149.197 278.102 136.007C284.648 123.541 279.81 109.277 276.344 101.883C271.355 91.2431 263.284 81.0498 252.355 71.588C241.784 62.4369 229.813 55.094 216.772 49.7648C203.385 44.2942 190.575 41.6443 178.7 41.8909C170.527 42.0602 155.528 43.9785 146.921 54.9214C140.077 63.6204 139.153 76.2466 144.386 89.5598C145.374 92.0765 146.612 94.6901 148.066 97.3252Z" fill="white"/>
<path d="M250.023 152.46C241.293 153.601 231.48 152.82 220.758 150.121C208.045 146.921 195.579 141.356 183.706 133.583C171.713 125.73 161.828 116.612 154.328 106.48C152.479 103.983 150.774 101.403 149.258 98.8128C146.043 93.265 143.775 87.8042 142.519 82.5835C141.021 76.3616 140.975 70.5014 142.379 65.164C143.963 59.1526 147.416 54.1077 152.644 50.1691C157.27 46.6843 163.142 44.2333 169.626 43.0794C180.463 41.1512 192.793 42.2328 206.273 46.293C219.052 50.1428 231.355 56.2414 242.843 64.4177C254.606 72.7913 264.017 82.2991 270.815 92.6781C278.335 104.157 281.697 114.981 280.81 124.852C280.223 131.382 277.498 137.308 272.932 141.988C268.659 146.365 262.907 149.572 256.297 151.262C254.274 151.778 252.182 152.179 250.025 152.46H250.023ZM149.365 98.7487C150.878 101.334 152.581 103.91 154.426 106.404C161.919 116.523 171.792 125.633 183.772 133.478C195.635 141.245 208.088 146.802 220.786 149.999C234.138 153.361 246.073 153.744 256.262 151.14C270.187 147.581 279.544 137.505 280.682 124.841C281.567 114.999 278.21 104.201 270.707 92.7472C263.917 82.3813 254.516 72.885 242.766 64.5213C231.289 56.3515 218.997 50.2595 206.231 46.413C192.77 42.3577 180.458 41.2778 169.643 43.2027C155.614 45.698 145.464 53.9203 142.496 65.1952C139.248 77.532 144.436 90.2502 149.362 98.7487H149.365Z" fill="white"/>
<path d="M244.473 173.616C239.545 174.26 233.069 172.911 225.152 169.582C216.105 165.778 207.961 160.495 205.681 158.968C181.494 142.76 160.994 120.891 147.957 97.386C146.387 94.5438 145.075 91.917 143.946 89.356C140.467 81.4624 136.915 71.4072 140.347 63.6451C144.267 54.7784 155.194 56.0228 161.358 57.5548C172.606 60.3493 184.364 66.3969 196.306 75.5299C205.62 82.6525 215.016 91.5603 225.032 102.763C235.511 114.482 243.282 125.558 248.79 136.624C252.978 145.038 257 154.804 255.086 163.436C254.047 168.124 251.636 171.256 247.921 172.743C246.872 173.164 245.723 173.455 244.473 173.618V173.616ZM148.066 97.3252C161.093 120.812 181.58 142.668 205.75 158.865C208.027 160.392 216.164 165.668 225.2 169.467C235.091 173.626 242.72 174.69 247.875 172.625C251.549 171.154 253.933 168.053 254.965 163.406C256.87 154.813 252.856 145.073 248.678 136.678C243.176 125.622 235.41 114.556 224.939 102.845C202.221 77.44 181.413 62.6638 161.327 57.6748C155.201 56.1526 144.344 54.9115 140.46 63.6944C137.048 71.4121 140.592 81.4344 144.06 89.3034C145.186 91.8611 146.497 94.4847 148.066 97.3219V97.3252Z" fill="white"/>
<path d="M244.271 172.319C240.983 172.748 236.989 172.41 232.427 171.292C226.8 169.914 220.209 167.292 214.797 164.281C191.866 151.52 170.392 131.285 154.334 107.301C152.456 104.497 150.71 101.688 149.145 98.9526C147.967 96.8896 143.942 89.4924 141.547 80.938C139.224 72.6335 139.296 66.3459 141.763 62.2479C144.017 58.5016 148.286 56.6967 154.451 56.8858C159.912 57.0518 165.73 58.3767 171.744 60.8227C177.01 62.9646 182.581 66.0303 188.305 69.9343C199.147 77.3315 208.966 86.6289 216.31 93.9011C223.069 100.595 232.97 110.819 240.891 122.28C244.859 128.02 248.03 133.644 250.317 138.996C252.911 145.063 254.453 150.978 254.902 156.575C255.44 163.277 253.757 167.93 249.901 170.409C248.372 171.392 246.481 172.03 244.271 172.319ZM149.253 98.8901C150.817 101.622 152.562 104.43 154.438 107.231C170.486 131.198 191.943 151.42 214.858 164.171C223.11 168.764 241.041 175.955 249.832 170.304C253.647 167.851 255.31 163.235 254.775 156.585C252.866 132.815 231.857 109.476 216.22 93.9899C199.196 77.131 176.791 57.6929 154.445 57.0107C148.327 56.8233 144.096 58.6085 141.868 62.312C139.421 66.3788 139.354 72.6335 141.667 80.9035C144.057 89.4431 148.077 96.8288 149.253 98.8901Z" fill="white"/>
<path d="M219.729 194.971C218.555 195.124 216.544 193.868 213.613 191.152C206.629 184.684 200.708 176.861 194.98 169.298L194.164 168.219C176.99 145.555 161.466 121.764 148.031 97.5159C146.54 94.8249 145.204 92.3444 143.95 89.933C143.433 88.9417 142.725 87.7204 141.902 86.3051C138.609 80.6339 134.1 72.8669 134.984 68.0883C135.216 66.8341 135.7 66.0895 136.421 65.8741C138.359 65.2955 141.61 68.6916 143.55 70.7201C143.831 71.0143 144.096 71.2905 144.321 71.5173C161.452 88.8135 175.125 110.071 188.35 130.629L188.881 131.454C197.48 144.82 204.237 156.159 210.145 167.136C210.859 168.463 211.624 169.821 212.433 171.259C215.866 177.357 219.76 184.271 220.79 190.879C221.14 193.127 220.928 194.424 220.14 194.843C220.017 194.908 219.882 194.951 219.732 194.969L219.729 194.971ZM136.681 65.9481C136.604 65.958 136.528 65.9744 136.456 65.9958C135.783 66.1963 135.33 66.9081 135.106 68.113C134.229 72.8455 138.911 80.9084 142.009 86.2426C142.832 87.6579 143.542 88.8826 144.058 89.8754C145.313 92.2869 146.648 94.7658 148.138 97.4567C161.572 121.701 177.09 145.484 194.263 168.146L195.079 169.224C200.803 176.784 206.723 184.602 213.697 191.062C216.958 194.082 219.045 195.283 220.078 194.734C220.801 194.35 220.999 193.059 220.663 190.902C219.637 184.316 215.749 177.413 212.321 171.325C211.512 169.886 210.747 168.529 210.032 167.2C204.125 156.225 197.37 144.889 188.772 131.526L188.241 130.701C175.02 110.149 161.35 88.8974 144.229 71.6094C144.004 71.3809 143.738 71.1031 143.456 70.8105C141.611 68.8807 138.571 65.7032 136.68 65.9514L136.681 65.9481Z" fill="white"/>
<path d="M219.515 194.3C218.894 194.381 218.048 194.182 216.96 193.7C211.638 191.345 206.67 184.6 202.676 179.179C201.602 177.721 200.588 176.343 199.659 175.178C183.783 155.25 168.723 133.004 153.619 107.17C151.924 104.27 150.384 101.581 148.914 98.946C148.528 98.2523 148.138 97.5569 147.747 96.86C143.476 89.2343 139.059 81.3506 136.417 73.0642C135.644 70.6379 134.979 67.5672 136.213 66.7174C137.069 66.1273 138.676 66.7585 140.986 68.5946C147.081 73.4373 152.093 79.9632 156.939 86.2738C157.656 87.2075 158.396 88.1724 159.118 89.1012C166.546 98.6599 174.262 109.471 182.706 122.152C183.556 123.429 184.413 124.711 185.271 125.998C197.948 144.989 211.058 164.628 218.936 185.736L219.114 186.208C220.152 188.969 221.572 192.75 220.301 193.948C220.097 194.141 219.834 194.259 219.512 194.3H219.515ZM149.024 98.8868C150.495 101.52 152.032 104.209 153.728 107.107C168.829 132.935 183.885 155.176 199.757 175.1C200.688 176.269 201.703 177.647 202.778 179.106C206.763 184.515 211.721 191.246 217.011 193.587C218.589 194.285 219.668 194.376 220.217 193.858C221.428 192.716 219.966 188.826 218.999 186.252L218.821 185.78C210.948 164.685 197.843 145.053 185.169 126.069C184.311 124.782 183.454 123.5 182.604 122.222C174.161 109.544 166.447 98.7356 159.021 89.1784C158.299 88.2497 157.557 87.2831 156.841 86.3511C151.999 80.0454 146.992 73.5261 140.909 68.6933C138.679 66.9212 137.079 66.2736 136.285 66.8226C135.372 67.4522 135.463 69.6549 136.538 73.028C139.176 81.3029 143.59 89.1817 147.859 96.8008C148.25 97.4994 148.64 98.1947 149.026 98.8884L149.024 98.8868Z" fill="white"/>
<path d="M184.048 213.824C183.796 213.857 183.53 213.858 183.249 213.83C176.832 213.184 170.016 200.305 166.355 193.386C165.701 192.15 165.137 191.083 164.686 190.296C159.697 181.561 154.759 171.731 149.59 160.245C144.129 148.109 139.707 137.339 136.071 127.315C131.676 115.195 128.365 104.04 125.95 93.2124C125.874 92.8754 125.762 92.4184 125.621 91.8381C124.494 87.2338 121.855 76.4537 124.415 72.2669C124.932 71.4236 125.641 70.8894 126.524 70.679C132.125 69.3491 139.676 82.6673 142.902 88.3549C143.338 89.1226 143.682 89.7275 143.94 90.1582C145.379 92.5499 146.824 95.0682 148.357 97.8545C158.73 116.693 168.113 138.046 176.245 161.32C176.702 162.629 180.798 174.453 183.851 186.571C187.493 201.033 188.169 209.849 185.86 212.777C185.385 213.38 184.776 213.728 184.048 213.824ZM126.889 70.7382C126.775 70.753 126.663 70.7727 126.553 70.799C125.705 71.0012 125.021 71.5157 124.522 72.331C121.988 76.4734 124.619 87.219 125.742 91.8085C125.884 92.3888 125.997 92.8474 126.071 93.1861C131.819 118.953 142.312 143.769 149.704 160.194C154.871 171.676 159.807 181.503 164.795 190.235C165.245 191.024 165.811 192.093 166.465 193.329C170.116 200.228 176.911 213.068 183.26 213.707C184.308 213.812 185.148 213.474 185.76 212.698C191.446 205.488 176.753 163.16 176.125 161.362C167.996 138.093 158.615 116.747 148.245 97.9153C146.714 95.1307 145.27 92.614 143.831 90.2239C143.572 89.7916 143.228 89.185 142.792 88.4174C139.645 82.8695 132.36 70.0247 126.887 70.7398L126.889 70.7382Z" fill="white"/>
<path d="M184.114 213.053C182.949 213.206 181.469 212.558 179.697 211.12C172.381 205.182 167.304 195.441 162.825 186.846C162.131 185.516 161.476 184.258 160.817 183.022C155.811 173.634 150.986 163.471 146.066 151.949C136.321 129.13 127.336 106.767 124.442 84.0974L124.412 83.8673C123.996 80.6273 123.133 73.8844 125.672 72.0335C126.617 71.3447 127.951 71.3957 129.638 72.1864C136.74 75.5134 142.29 86.3281 146.344 94.2266C147.158 95.8129 147.926 97.3104 148.628 98.5909C149.806 100.738 151.013 103.008 152.216 105.337C162.563 125.378 171.435 146.643 178.585 168.542L178.787 169.161C182.514 180.569 186.365 192.365 187.033 204.258C187.184 206.966 187.105 211.677 184.864 212.821C184.63 212.941 184.38 213.017 184.114 213.053ZM126.852 71.7031C126.436 71.7573 126.068 71.902 125.747 72.1354C123.268 73.942 124.126 80.6356 124.537 83.8525L124.567 84.0826C127.458 106.738 136.441 129.089 146.181 151.901C151.1 163.42 155.923 173.58 160.927 182.965C161.586 184.201 162.241 185.458 162.935 186.79C167.409 195.374 172.479 205.103 179.776 211.024C181.912 212.759 183.604 213.326 184.806 212.713C186.983 211.6 187.057 206.944 186.908 204.268C186.242 192.392 182.392 180.602 178.669 169.202L178.467 168.581C171.318 146.689 162.45 125.429 152.105 105.395C150.902 103.065 149.695 100.795 148.518 98.6501C147.816 97.3679 147.046 95.8688 146.232 94.2825C142.187 86.402 136.648 75.6088 129.586 72.2998C128.525 71.8034 127.611 71.6045 126.852 71.7031Z" fill="white"/>
<path d="M146.094 225.478C145.691 225.531 145.28 225.57 144.862 225.598C135.173 226.22 126.224 219.628 118.263 206.004C113.312 197.53 108.791 186.379 104.83 172.86C97.6159 148.247 95.6113 124.317 99.0284 103.655C100.214 96.4901 101.814 90.7844 103.922 86.2114C106.981 79.5753 111.118 75.3836 116.221 73.7529C127.043 70.2943 136.864 80.3808 143.198 89.4513C144.844 91.8085 146.436 94.3844 148.067 97.3252C158.633 116.499 165.056 140.153 166.641 165.727C167.707 182.92 167.776 222.644 146.094 225.478ZM118.803 73.3009C117.961 73.411 117.114 73.5984 116.259 73.8713C107.607 76.6345 102.013 86.384 99.1518 103.675C95.7362 124.317 97.7408 148.229 104.948 172.824C112.194 197.545 124.997 226.746 144.853 225.472C167.656 224.012 167.598 183.208 166.515 165.734C164.931 140.179 158.511 116.541 147.956 97.3844C146.328 94.4469 144.736 91.8759 143.093 89.522C137.286 81.2043 128.54 72.0269 118.803 73.3009Z" fill="white"/>
<path d="M146.41 225.056C143.692 225.411 140.74 224.944 137.576 223.654C128.405 219.914 120.456 211.156 113.952 197.626C109.536 188.442 105.805 177.162 102.544 163.143C95.8086 134.193 95.7691 110.061 102.429 91.419C104.615 85.3007 111.071 71.3628 123.797 74.057C128.987 75.1551 134.007 78.4707 138.719 83.9117C143.06 88.9237 146.512 95.0206 148.73 99.1712C149.97 101.504 151.167 103.951 152.289 106.445C157.013 116.949 160.647 128.28 163.089 140.119C165.476 151.688 166.681 163.528 166.674 175.311C166.673 178.345 166.469 189.121 163.936 200.358C161.368 211.756 157.378 219.34 152.082 222.896C150.33 224.071 148.436 224.793 146.413 225.058L146.41 225.056ZM118.885 73.9551C109.446 75.1896 104.419 86.2163 102.544 91.4617C95.8941 110.081 95.9336 134.189 102.664 163.115C105.924 177.124 109.652 188.394 114.064 197.571C120.554 211.074 128.48 219.811 137.622 223.539C143.101 225.773 147.941 225.521 152.007 222.791C157.278 219.253 161.249 211.695 163.81 200.328C166.339 189.102 166.543 178.34 166.544 175.309C166.561 151.232 161.59 127.437 152.17 106.496C151.05 104.006 149.853 101.56 148.615 99.2304C143.062 88.8415 135.218 76.6049 123.767 74.1819C122.024 73.8121 120.396 73.7578 118.885 73.9551Z" fill="white"/>
<path d="M111.511 227.737C108.244 228.164 104.92 228.072 101.572 227.458C95.3942 226.325 89.7373 223.58 84.7629 219.298C80.3393 215.491 76.4223 210.451 73.1219 204.314C65.7383 190.592 63.4147 175.46 62.6879 167.664C61.2884 152.669 62.5629 137.416 66.3747 123.555C68.4418 116.038 71.234 109.062 74.6759 102.822C78.3709 96.1203 82.8323 90.2436 87.9334 85.3533C96.2312 77.3989 106.359 73.4357 116.45 74.1918C126.532 74.948 135.943 80.3725 142.95 89.4645C144.749 91.7987 146.472 94.4436 148.069 97.3235C154.843 109.596 158.723 124.496 159.289 140.414C159.819 155.312 157.49 170.605 152.555 184.64C148.332 196.651 141.554 207.934 133.958 215.596C129.357 220.236 124.442 223.626 119.347 225.671C116.782 226.7 114.164 227.39 111.511 227.737ZM109.737 74.5041C101.979 75.5184 94.4487 79.2778 88.0172 85.4421C65.7663 106.771 60.407 141.894 62.8112 167.651C63.538 175.439 65.8584 190.551 73.232 204.253C80.3147 217.415 89.8574 225.181 101.595 227.333C113.134 229.448 123.993 225.469 133.869 215.505C141.452 207.857 148.219 196.592 152.437 184.597C162.917 154.793 161.198 121.372 147.959 97.3827C146.364 94.5077 144.645 91.8677 142.85 89.5384C135.864 80.4745 126.484 75.068 116.438 74.3135C114.2 74.1458 111.959 74.2115 109.737 74.5008V74.5041Z" fill="white"/>
<path d="M110.78 227.126C110.719 227.134 110.658 227.142 110.597 227.149C104.95 227.852 99.3096 226.902 93.8287 224.324C88.0074 221.588 82.8603 217.442 78.5305 212.002C74.6529 207.13 71.3968 201.185 68.8545 194.331C63.1121 178.852 62.4478 162.879 62.5613 154.734C62.7668 140.155 65.5196 125.328 70.3148 112.987C73.0742 105.886 76.5045 99.5509 80.5104 94.1592C84.906 88.2431 90.0317 83.4202 95.7429 79.8235C99.9855 77.1523 104.404 75.4493 108.879 74.7622C113.077 74.1162 117.325 74.3611 121.505 75.4871C126.984 76.9633 132.189 79.8745 136.971 84.1369C141.511 88.1839 145.514 93.385 148.549 99.181C150.051 102.056 151.414 105.137 152.6 108.339C157.579 121.77 159.71 137.051 158.763 152.526C157.826 167.863 153.912 182.795 147.444 195.709C142.067 206.446 134.132 215.783 125.678 221.325C120.804 224.518 115.79 226.471 110.775 227.127L110.78 227.126ZM109.602 74.8017C104.902 75.4165 100.255 77.1342 95.8136 79.9304C71.9576 94.9499 63.0612 128.421 62.6912 154.737C62.3212 181.059 70.3197 213.133 93.8846 224.211C104.233 229.075 115.205 228.041 125.616 221.218C134.052 215.69 141.97 206.371 147.339 195.651C160.631 169.112 162.604 135.672 152.489 108.381C151.305 105.186 149.944 102.11 148.444 99.2386C142.101 87.1286 132.273 78.515 121.478 75.6071C117.545 74.5469 113.555 74.2839 109.604 74.8L109.602 74.8017Z" fill="white"/>
<path d="M87.2098 220.149C81.5118 220.894 75.8467 220.706 70.3148 219.585C57.3813 216.963 46.7253 209.19 39.5012 197.105C33.0813 186.364 29.7842 172.899 30.2167 159.19C30.6952 144.034 35.0201 128.755 42.721 115.004C50.5782 100.974 61.4694 89.4595 74.2171 81.709C85.47 74.8658 98.3246 71.6373 110.411 72.6187C123.565 73.6872 134.805 79.5704 142.919 89.6354C144.881 92.0699 146.661 94.746 148.209 97.5898C154.917 109.863 157.497 124.719 155.668 140.554C154.022 154.819 148.766 169.561 140.871 182.064C133.136 194.312 122.495 204.829 110.903 211.677C104.537 215.438 97.981 218.048 91.418 219.432C90.0153 219.728 88.6109 219.968 87.2098 220.151V220.149ZM99.0942 73.0198C90.1994 74.1819 81.5858 77.3709 74.2812 81.8142C48.5802 97.4435 31.3333 127.816 30.34 159.193C29.5507 184.156 41.7311 213.663 70.3378 219.462C75.9865 220.606 81.5858 220.731 87.0454 220.018C109.27 217.113 129.189 200.325 140.764 181.996C153.978 161.072 163.826 126.427 148.097 97.649C146.553 94.8118 144.777 92.1422 142.818 89.7127C131.09 75.1633 114.664 70.9847 99.0926 73.0214L99.0942 73.0198Z" fill="white"/>
<path d="M86.7593 219.595C78.4006 220.688 69.8314 219.792 61.5006 216.212C49.3942 211.008 40.307 200.999 35.2207 187.266C30.7955 175.317 29.605 161.151 31.871 147.378C33.0813 140.017 35.1895 132.692 38.1347 125.605C41.1078 118.455 44.8687 111.705 49.3136 105.548C58.7626 92.4562 70.8706 82.6443 84.3288 77.172C96.3266 72.2932 109.26 71.6538 120.748 75.3688C126.547 77.2444 131.825 80.1588 136.441 84.0333C141.251 88.0722 145.231 93.0677 148.268 98.8852C149.751 101.714 151.039 104.765 152.096 107.956C156.559 121.428 156.928 136.698 153.16 152.112C151.396 159.331 148.763 166.439 145.338 173.235C141.957 179.94 137.878 186.198 133.215 191.833C121.761 205.672 104.754 217.243 86.7593 219.595ZM98.2852 73.5852C93.6594 74.1902 88.9891 75.4115 84.3781 77.2871C57.7842 88.1001 37.2237 115.621 31.996 147.397C27.7138 173.427 35.1911 204.765 61.5516 216.097C69.8577 219.668 78.4071 220.56 86.7445 219.47C104.707 217.123 121.682 205.57 133.119 191.752C153.34 167.322 160.743 134.444 151.98 107.995C150.925 104.811 149.64 101.767 148.16 98.9443C138.462 80.3824 118.813 70.9009 98.2852 73.5852Z" fill="white"/>
<path d="M78.8379 204.153C76.2068 204.497 73.5774 204.71 70.9578 204.793C63.4657 205.028 56.2071 204.173 49.3843 202.253C35.9344 198.469 24.5745 190.447 17.3949 179.662C10.087 168.685 7.06615 154.885 8.88819 140.804C9.79922 133.765 11.8531 126.733 14.9924 119.905C17.9836 113.398 21.9007 107.196 26.635 101.473C31.6966 95.351 37.6018 89.8738 44.1845 85.1938C50.7475 80.5271 57.8581 76.7414 65.3173 73.9419C72.3753 71.2938 79.6273 69.5842 86.8678 68.8609C94.4437 68.1048 101.877 68.445 108.961 69.8735C122.784 72.6614 134.854 79.7117 142.948 89.7258C145.02 92.2902 146.86 95.0682 148.416 97.9811C154.584 109.509 156.378 123.564 153.471 137.556C152.007 144.6 149.429 151.546 145.81 158.205C142.343 164.583 137.985 170.587 132.855 176.049C127.38 181.878 121.13 187 114.274 191.272C107.387 195.564 100.032 198.909 92.4095 201.217C87.9169 202.577 83.3733 203.558 78.8346 204.152L78.8379 204.153ZM84.4323 69.2571C78.07 70.0889 71.6698 71.6932 65.3617 74.0603C50.2871 79.7167 36.9293 89.2228 26.7321 101.553C16.9312 113.405 10.804 126.984 9.01317 140.82C7.19606 154.872 10.2103 168.64 17.5001 179.593C24.6633 190.352 35.9985 198.357 49.4188 202.133C62.8243 205.904 77.6786 205.547 92.375 201.099C107.721 196.454 121.687 187.763 132.764 175.965C143.346 164.695 150.465 151.405 153.348 137.533C156.25 123.569 154.459 109.544 148.306 98.0419C146.753 95.1356 144.918 92.3642 142.851 89.8064C134.775 79.8153 122.731 72.7798 108.936 69.9984C101.035 68.4056 92.7647 68.1672 84.4323 69.2571Z" fill="white"/>
<path d="M78.8692 203.627C72.7009 204.434 66.5737 204.513 60.6192 203.861C53.4116 203.072 46.6217 201.224 40.4369 198.369C28.0197 192.637 18.357 182.79 13.2296 170.646C10.6511 164.539 9.22371 157.903 8.98856 150.92C8.76491 144.294 9.6118 137.544 11.5078 130.859C13.4894 123.871 16.5579 117.061 20.6296 110.617C24.545 104.418 29.3172 98.6632 34.8162 93.5082C40.6326 88.0557 47.1397 83.3676 54.1582 79.5753C61.2671 75.7321 68.7625 72.885 76.4354 71.1097C83.5181 69.4708 90.6467 68.7853 97.6208 69.0681C104.967 69.3672 111.983 70.7415 118.477 73.1529C131.381 77.9463 141.855 86.9198 147.967 98.4167C149.498 101.292 150.774 104.346 151.759 107.497C153.741 113.836 154.558 120.62 154.186 127.658C153.836 134.308 152.44 141.009 150.041 147.581C145.032 161.297 136.007 173.79 123.945 183.711C117.839 188.733 111.137 192.952 104.028 196.251C96.7657 199.621 89.2062 201.969 81.5595 203.229C80.6617 203.377 79.7654 203.511 78.8692 203.627ZM84.4801 69.7782C81.821 70.1267 79.1455 70.6099 76.4634 71.2297C61.0895 74.7852 46.717 82.521 34.9017 93.5987C23.5879 104.205 15.54 117.102 11.6295 130.892C7.73056 144.641 8.34065 158.741 13.3463 170.596C18.4622 182.711 28.1019 192.535 40.4895 198.254C52.6173 203.852 66.8122 205.531 81.5382 203.104C96.7772 200.594 111.413 193.853 123.865 183.612C135.91 173.705 144.92 161.23 149.922 147.535C154.864 134.004 155.474 119.798 151.639 107.532C150.656 104.389 149.383 101.339 147.855 98.4726C141.758 87.002 131.309 78.0498 118.433 73.268C108.007 69.3952 96.4023 68.2182 84.4784 69.7765L84.4801 69.7782Z" fill="white"/>
<path d="M88.6684 183.193C88.4251 183.224 88.185 183.255 87.9416 183.285C80.2308 184.234 72.4098 184.25 64.6974 183.334C56.9175 182.411 49.3892 180.553 42.3198 177.813C29.2843 172.761 17.8998 164.245 10.263 153.835C1.75133 142.229 -1.56222 129.069 0.682442 115.777C2.96658 102.25 10.5261 90.0036 22.5437 80.3594C33.1882 71.8181 46.9176 65.6851 61.2013 63.0895C68.4171 61.7794 75.8681 61.2977 83.347 61.6594C90.9904 62.0292 98.4578 63.2703 105.542 65.3514C120.863 69.8489 133.664 78.0761 142.559 89.1439C144.614 91.7017 146.467 94.4534 148.067 97.3252C151.335 103.264 153.33 109.593 153.996 116.135C154.627 122.341 154.058 128.643 152.307 134.867C148.909 146.93 141.171 158.1 130.516 166.318C118.856 175.311 104.398 181.14 88.6701 183.196L88.6684 183.193ZM66.1527 62.4418C64.5099 62.6572 62.8688 62.912 61.2227 63.2111C34.757 68.0209 5.81311 86.144 0.805776 115.797C-4.18018 145.328 18.8536 168.584 42.3658 177.696C71.956 189.163 106.525 184.656 130.439 166.216C153.336 148.558 160.539 120.255 147.957 97.3844C146.362 94.5192 144.512 91.7724 142.462 89.2195C125.986 68.7228 96.4417 58.4819 66.1527 62.4418Z" fill="white"/>
<path d="M88.3363 182.734C84.1495 183.282 79.8986 183.555 75.6148 183.543C59.7673 183.504 44.5529 179.577 31.6161 172.183C19.8106 165.437 10.4472 155.383 5.25072 143.875C-0.371637 131.423 -0.782749 118.259 4.06343 105.807C9.11681 92.8195 19.0098 81.801 32.6718 73.9419C44.9016 66.9064 59.7344 62.6983 74.4391 62.0917C89.0812 61.4868 104.141 64.3651 116.843 70.1957C131.029 76.7085 141.901 86.6535 148.28 98.9558C149.755 101.837 150.945 104.777 151.822 107.693C155.587 120.232 154.084 133.316 147.479 145.533C141.495 156.599 131.658 166.237 119.78 172.671C110.181 177.87 99.4873 181.278 88.3379 182.734H88.3363ZM66.4487 62.907C41.4236 66.1782 14.2261 80.0356 4.18018 105.853C-6.86719 134.242 10.6905 160.081 31.6786 172.074C57.9683 187.097 92.5247 187.288 119.719 172.559C141.033 161.015 160.131 135.804 151.702 107.729C150.828 104.821 149.64 101.888 148.168 99.0134C133.238 70.2236 99.1222 61.1975 74.444 62.2166C71.8211 62.3251 69.1456 62.5553 66.4487 62.907Z" fill="white"/>
</g>
<defs>
<clipPath id="clip0_1_110">
<rect width="296" height="228" fill="white"/>
</clipPath>
</defs>
</svg>
