<svg width="300" height="202" viewBox="0 0 300 202" fill="none" xmlns="http://www.w3.org/2000/svg">
<path d="M98.5202 168.746H201.49" stroke="#21293D" stroke-width="0.52" stroke-miterlimit="10"/>
<path d="M65.7302 147.906H69.0502L67.4302 142.736H67.3702L65.7302 147.906ZM69.7302 150.226H65.0102L64.0102 153.386H60.9402L65.9402 138.696H68.9402L73.8802 153.386H70.7702L69.7302 150.226Z" fill="#21293D"/>
<path d="M100.01 148.526V148.586C100.062 149.268 99.9606 149.952 99.7131 150.589C99.4656 151.226 99.0785 151.799 98.5802 152.266C97.4475 153.208 96.0009 153.686 94.5302 153.606C93.7391 153.637 92.9504 153.502 92.2149 153.209C91.4794 152.916 90.8135 152.473 90.2602 151.906C89.1584 150.712 88.5758 149.13 88.6402 147.506V144.596C88.5778 142.981 89.1441 141.403 90.2202 140.196C90.7508 139.63 91.3967 139.184 92.1144 138.889C92.8321 138.594 93.6048 138.457 94.3802 138.486C95.8929 138.398 97.3861 138.863 98.5802 139.796C99.0914 140.26 99.4897 140.834 99.7445 141.476C99.9993 142.117 100.104 142.808 100.05 143.496V143.556H97.1702C97.2308 142.791 96.9864 142.032 96.4902 141.446C96.2019 141.197 95.8669 141.008 95.5046 140.889C95.1423 140.771 94.7601 140.725 94.3802 140.756C93.9739 140.743 93.571 140.834 93.2102 141.022C92.8494 141.209 92.543 141.486 92.3202 141.826C91.7934 142.64 91.5346 143.598 91.5802 144.566V147.506C91.5379 148.489 91.8113 149.46 92.3602 150.276C92.605 150.62 92.9314 150.898 93.3102 151.085C93.689 151.272 94.1082 151.362 94.5302 151.346C94.8941 151.378 95.2606 151.332 95.6054 151.211C95.9501 151.09 96.2654 150.898 96.5302 150.646C97.0096 150.049 97.2422 149.29 97.1802 148.526H100.01Z" fill="#21293D"/>
<path d="M119.61 147.906H122.93L121.31 142.736H121.25L119.61 147.906ZM123.61 150.226H118.84L117.84 153.386H114.77L119.72 138.696H122.72L127.65 153.386H124.58L123.61 150.226Z" fill="#21293D"/>
<path d="M145.93 141.006V151.166H148.11C148.557 151.18 149.002 151.09 149.408 150.903C149.814 150.715 150.171 150.436 150.45 150.086C151.066 149.294 151.381 148.309 151.34 147.306V144.856C151.381 143.857 151.066 142.875 150.45 142.086C150.171 141.737 149.814 141.457 149.408 141.27C149.002 141.083 148.557 140.992 148.11 141.006H145.93ZM142.93 153.426V138.696H148.06C148.878 138.671 149.692 138.811 150.455 139.106C151.217 139.402 151.913 139.847 152.5 140.416C153.076 140.996 153.527 141.687 153.826 142.447C154.125 143.207 154.266 144.02 154.24 144.836V147.266C154.27 148.082 154.131 148.894 153.832 149.653C153.532 150.412 153.079 151.101 152.5 151.676C151.912 152.244 151.216 152.688 150.454 152.982C149.691 153.276 148.877 153.413 148.06 153.386L142.93 153.426Z" fill="#21293D"/>
<path d="M178.9 146.936H173.45V151.126H179.93V153.386H170.5V138.696H179.91V140.966H173.45V144.666H178.9V146.936Z" fill="#21293D"/>
<path d="M203.44 149.526H203.5L207.27 138.696H211.12V153.386H208.17V143.356L208.11 143.346L204.48 153.386H202.48L198.85 143.326L198.79 143.336V153.386H195.84V138.696H199.71L203.44 149.526Z" fill="#21293D"/>
<path d="M232.57 145.466H232.63L235.84 138.696H239.07L234.03 148.226V153.386H231.09V148.076L226.13 138.696H229.36L232.57 145.466Z" fill="#21293D"/>
<path d="M68.9302 63.4563C68.071 63.5229 67.2075 63.4056 66.3971 63.1125C65.5867 62.8194 64.848 62.3571 64.2302 61.7563L65.8602 60.1263C66.278 60.5088 66.769 60.8026 67.3035 60.9899C67.838 61.1773 68.405 61.2543 68.9702 61.2163C70.4502 61.2163 71.2402 60.6563 71.2402 59.6263C71.2529 59.4277 71.2249 59.2285 71.1578 59.041C71.0908 58.8536 70.9861 58.6818 70.8502 58.5363C70.5266 58.2707 70.1279 58.1133 69.7102 58.0863L68.1502 57.8663C67.2284 57.7874 66.356 57.416 65.6602 56.8063C65.3441 56.4685 65.0997 56.0702 64.9416 55.6354C64.7835 55.2006 64.715 54.7383 64.7402 54.2763C64.7402 51.9763 66.4402 50.3763 69.2202 50.3763C69.9795 50.3261 70.7411 50.4334 71.4569 50.6916C72.1728 50.9497 72.8276 51.3531 73.3802 51.8763L71.7902 53.4463C71.4319 53.1291 71.0137 52.8869 70.5603 52.734C70.1069 52.5811 69.6274 52.5207 69.1502 52.5563C67.8102 52.5563 67.1502 53.2963 67.1502 54.1863C67.1471 54.3575 67.1793 54.5275 67.2446 54.6858C67.31 54.8441 67.4072 54.9872 67.5302 55.1063C67.8677 55.3903 68.2818 55.5678 68.7202 55.6163L70.2402 55.8263C71.1453 55.8911 72.0066 56.2412 72.7002 56.8263C73.0452 57.1864 73.3122 57.6138 73.4842 58.0819C73.6563 58.55 73.7298 59.0485 73.7002 59.5463C73.7002 62.0463 71.6202 63.4563 68.9302 63.4563" fill="#21293D"/>
<path d="M83.1002 54.2763L81.4702 59.0063H84.6702L83.1002 54.2763ZM86.1002 63.3463L85.3402 61.0663H80.7702L79.9902 63.3463H77.3702L82.0502 50.4863H84.0502L88.7502 63.3463H86.1002Z" fill="#21293D"/>
<path d="M93.0102 63.3463V50.4863H95.5302V61.1063H101.36V63.3463H93.0102Z" fill="#21293D"/>
<path d="M106.11 63.3463V50.4863H114.59V52.7263H108.62V55.7363H113.7V57.9763H108.62V61.1063H114.59V63.3463H106.11Z" fill="#21293D"/>
<path d="M123.29 63.4563C122.432 63.526 121.569 63.4102 120.76 63.1169C119.951 62.8235 119.214 62.3595 118.6 61.7563L120.22 60.1263C120.639 60.5078 121.13 60.801 121.664 60.9883C122.198 61.1756 122.765 61.2531 123.33 61.2163C124.81 61.2163 125.61 60.6563 125.61 59.6263C125.622 59.427 125.592 59.2274 125.523 59.0399C125.454 58.8524 125.348 58.681 125.21 58.5363C124.889 58.2665 124.489 58.1085 124.07 58.0863L122.53 57.8663C121.606 57.7868 120.73 57.4156 120.03 56.8063C119.714 56.4685 119.47 56.0702 119.312 55.6354C119.153 55.2006 119.085 54.7383 119.11 54.2763C119.11 51.9763 120.81 50.3763 123.59 50.3763C124.35 50.3249 125.111 50.4316 125.828 50.6898C126.544 50.948 127.198 51.3521 127.75 51.8763L126.16 53.4463C125.802 53.1286 125.384 52.8861 124.931 52.7332C124.477 52.5803 123.997 52.5202 123.52 52.5563C122.18 52.5563 121.52 53.2963 121.52 54.1863C121.517 54.3575 121.549 54.5275 121.615 54.6858C121.68 54.8441 121.777 54.9872 121.9 55.1063C122.241 55.3905 122.659 55.5679 123.1 55.6163L124.61 55.8263C125.516 55.8891 126.378 56.2394 127.07 56.8263C127.417 57.185 127.685 57.6122 127.858 58.0806C128.03 58.5491 128.102 59.0483 128.07 59.5463C128.07 62.0463 126 63.4563 123.3 63.4563" fill="#21293D"/>
<path d="M138.27 57.9463H135.65V61.1063H138.27C138.689 61.1063 139.091 60.9399 139.387 60.6436C139.684 60.3473 139.85 59.9454 139.85 59.5263C139.85 59.1073 139.684 58.7054 139.387 58.4091C139.091 58.1128 138.689 57.9463 138.27 57.9463V57.9463ZM138.11 52.7263H135.65V55.7263H138.11C138.508 55.7263 138.89 55.5683 139.171 55.287C139.452 55.0057 139.61 54.6242 139.61 54.2263C139.61 53.8285 139.452 53.447 139.171 53.1657C138.89 52.8844 138.508 52.7263 138.11 52.7263ZM138.53 63.3463H133.14V50.4863H138.31C140.82 50.4863 142.31 51.8863 142.31 54.0963C142.311 54.6408 142.163 55.175 141.883 55.6418C141.603 56.1087 141.201 56.4905 140.72 56.7463C141.274 56.9941 141.739 57.4039 142.055 57.9216C142.371 58.4394 142.523 59.0407 142.49 59.6463C142.49 62.0463 140.85 63.3463 138.56 63.3463" fill="#21293D"/>
<path d="M153.67 53.2963C153.459 53.0811 153.207 52.9101 152.929 52.7933C152.65 52.6766 152.352 52.6165 152.05 52.6165C151.749 52.6165 151.45 52.6766 151.172 52.7933C150.894 52.9101 150.641 53.0811 150.43 53.2963C149.94 53.8463 149.82 54.4363 149.82 56.9163C149.82 59.3963 149.94 59.9863 150.43 60.5263C150.64 60.7441 150.892 60.9173 151.17 61.0356C151.448 61.1539 151.748 61.2149 152.05 61.2149C152.353 61.2149 152.652 61.1539 152.93 61.0356C153.209 60.9173 153.46 60.7441 153.67 60.5263C154.15 59.9863 154.3 59.3863 154.3 56.9163C154.3 54.4463 154.15 53.8463 153.67 53.2963ZM155.53 62.0063C154.596 62.9225 153.339 63.4356 152.03 63.4356C150.721 63.4356 149.465 62.9225 148.53 62.0063C147.23 60.7063 147.27 59.0963 147.27 56.8763C147.27 54.6563 147.27 53.0463 148.53 51.7463C149.465 50.8302 150.721 50.3171 152.03 50.3171C153.339 50.3171 154.596 50.8302 155.53 51.7463C156.83 53.0463 156.81 54.6463 156.81 56.8763C156.81 59.1063 156.81 60.7063 155.53 62.0063Z" fill="#21293D"/>
<path d="M168.01 53.2963C167.806 53.074 167.557 52.8982 167.279 52.7809C167.001 52.6636 166.702 52.6074 166.4 52.6163C166.097 52.6086 165.796 52.6652 165.517 52.7824C165.238 52.8996 164.987 53.0748 164.78 53.2963C164.29 53.8463 164.16 54.4363 164.16 56.9163C164.16 59.3963 164.29 59.9863 164.78 60.5263C164.985 60.7512 165.235 60.9293 165.515 61.0484C165.794 61.1675 166.096 61.2248 166.4 61.2163C166.703 61.226 167.004 61.1692 167.282 61.05C167.56 60.9308 167.809 60.7521 168.01 60.5263C168.5 59.9863 168.64 59.3863 168.64 56.9163C168.64 54.4463 168.5 53.8463 168.01 53.2963ZM169.87 62.0063C168.936 62.9225 167.679 63.4356 166.37 63.4356C165.061 63.4356 163.805 62.9225 162.87 62.0063C161.56 60.7063 161.6 59.0963 161.6 56.8763C161.6 54.6563 161.6 53.0463 162.87 51.7463C163.805 50.8302 165.061 50.3171 166.37 50.3171C167.679 50.3171 168.936 50.8302 169.87 51.7463C171.17 53.0463 171.15 54.6463 171.15 56.8763C171.15 59.1063 171.15 60.7063 169.87 62.0063Z" fill="#21293D"/>
<path d="M179.97 63.4563C179.111 63.5229 178.247 63.4056 177.437 63.1125C176.627 62.8194 175.888 62.3571 175.27 61.7563L176.9 60.1263C177.318 60.5093 177.809 60.8034 178.343 60.9908C178.878 61.1781 179.445 61.2549 180.01 61.2163C181.49 61.2163 182.28 60.6563 182.28 59.6263C182.293 59.4277 182.265 59.2285 182.198 59.041C182.131 58.8536 182.026 58.6818 181.89 58.5363C181.567 58.2707 181.168 58.1133 180.75 58.0863L179.19 57.8663C178.268 57.7874 177.396 57.416 176.7 56.8063C176.384 56.4685 176.14 56.0702 175.982 55.6354C175.823 55.2006 175.755 54.7383 175.78 54.2763C175.78 51.9763 177.48 50.3763 180.26 50.3763C181.02 50.3261 181.781 50.4334 182.497 50.6916C183.213 50.9497 183.868 51.3531 184.42 51.8763L182.83 53.4463C182.472 53.1291 182.054 52.8869 181.6 52.734C181.147 52.5811 180.667 52.5207 180.19 52.5563C178.85 52.5563 178.19 53.2963 178.19 54.1863C178.187 54.3575 178.219 54.5275 178.285 54.6858C178.35 54.8441 178.447 54.9872 178.57 55.1063C178.908 55.3903 179.322 55.5678 179.76 55.6163L181.28 55.8263C182.185 55.8931 183.046 56.243 183.74 56.8263C184.085 57.1864 184.352 57.6138 184.524 58.0819C184.696 58.55 184.77 59.0485 184.74 59.5463C184.74 62.0463 182.66 63.4563 179.97 63.4563" fill="#21293D"/>
<path d="M194.73 52.7263V63.3463H192.22V52.7263H188.86V50.4763H198.09V52.7263H194.73Z" fill="#21293D"/>
<path d="M205.35 50.4763H202.84V63.3363H205.35V50.4763Z" fill="#21293D"/>
<path d="M218.67 63.3463L213.57 55.4463V63.3463H211.06V50.4863H213.3L218.4 58.3563V50.4863H220.91V63.3463H218.67Z" fill="#21293D"/>
<path d="M234.53 62.0063C234.062 62.4928 233.497 62.8751 232.872 63.1284C232.246 63.3817 231.575 63.5003 230.9 63.4763C230.255 63.48 229.616 63.3515 229.023 63.0987C228.43 62.8458 227.894 62.4741 227.45 62.0063C226.935 61.4751 226.587 60.8039 226.45 60.0763C226.286 59.0179 226.216 57.9471 226.24 56.8763C226.215 55.8056 226.286 54.7347 226.45 53.6763C226.582 52.9472 226.931 52.2747 227.45 51.7463C227.902 51.287 228.443 50.9249 229.039 50.6824C229.636 50.4399 230.276 50.3221 230.92 50.3363C232.102 50.2683 233.265 50.6586 234.166 51.426C235.068 52.1933 235.639 53.2787 235.76 54.4563H233.23C233.155 53.9084 232.875 53.4094 232.446 53.0604C232.017 52.7113 231.472 52.5383 230.92 52.5763C230.618 52.5647 230.318 52.6196 230.039 52.7371C229.761 52.8546 229.512 53.0319 229.31 53.2563C228.84 53.8563 228.7 54.3263 228.7 56.8763C228.7 59.4263 228.81 59.8763 229.31 60.5063C229.511 60.7323 229.759 60.91 230.038 61.0261C230.317 61.1421 230.619 61.1935 230.92 61.1763C231.253 61.1905 231.586 61.1326 231.895 61.0067C232.204 60.8807 232.482 60.6896 232.71 60.4463C233.109 59.968 233.316 59.3586 233.29 58.7363V58.2463H230.92V56.1463H235.78V58.0263C235.862 58.7403 235.793 59.4635 235.578 60.1491C235.363 60.8348 235.006 61.4675 234.53 62.0063" fill="#21293D"/>
<path d="M122.02 29.0063C122.02 29.0063 122.33 29.7063 122.91 29.7063C123.095 29.6935 123.268 29.6164 123.402 29.4885C123.535 29.3606 123.62 29.19 123.64 29.0063H122.02Z" fill="#21293D"/>
<path d="M56.0202 83.3263C56.0202 83.3263 55.9102 82.6263 56.7902 82.6263C56.972 82.6381 57.1432 82.7156 57.2721 82.8444C57.4009 82.9733 57.4784 83.1446 57.4902 83.3263L56.7902 83.5063L56.0202 83.3263Z" fill="#21293D"/>
<path d="M56.4602 112.646C56.4729 112.8 56.5445 112.943 56.66 113.046C56.7754 113.148 56.9259 113.202 57.0802 113.196C57.2028 113.206 57.3256 113.18 57.4338 113.121C57.5419 113.063 57.631 112.974 57.6902 112.866C57.7332 112.798 57.7669 112.724 57.7902 112.646H56.4602Z" fill="#21293D"/>
<path d="M57.3902 112.646L57.6902 112.866L58.0302 112.316L57.3902 112.646Z" fill="#21293D"/>
<path d="M148.98 113.676C148.98 113.676 147.89 113.776 147.89 112.896C147.89 112.896 147.71 112.106 148.98 112.206V113.676Z" fill="#21293D"/>
<path d="M60.0002 43.2463H87.1102L86.9102 43.1663C82.3517 41.5736 78.1929 39.0114 74.7202 35.6563C71.5802 32.5163 70.0102 28.343 70.0102 23.1363C69.9564 20.0809 70.5352 17.0474 71.7102 14.2263C72.7735 11.717 74.3825 9.47611 76.4202 7.66634C78.4792 5.86458 80.8853 4.50331 83.4902 3.66634C86.2757 2.77364 89.1851 2.32812 92.1102 2.34634C95.7211 2.30993 99.2902 3.12171 102.53 4.71634C105.65 6.27669 108.489 8.34489 110.93 10.8363C113.432 13.4065 115.609 16.2747 117.41 19.3763C119.231 22.4426 120.773 25.6654 122.02 29.0063H123.64V1.77634C123.596 1.61704 123.501 1.47675 123.369 1.37729C123.237 1.27783 123.075 1.22476 122.91 1.22634C122.728 1.23865 122.552 1.29518 122.397 1.39103C122.242 1.48688 122.113 1.61915 122.02 1.77634C121.23 2.95634 120.37 4.12634 119.44 5.30634C118.51 6.48634 117.89 7.07634 117.6 7.07634C116.999 6.76634 116.429 6.3979 115.9 5.97634C114.465 5.01694 112.937 4.20292 111.34 3.54634C108.838 2.50378 106.248 1.68719 103.6 1.10634C99.8735 0.315107 96.0695 -0.0538848 92.2602 0.0063402C87.7027 -0.016728 83.1647 0.602698 78.7802 1.84634C74.6803 2.99062 70.84 4.91587 67.4702 7.51634C64.1886 10.0909 61.5208 13.3633 59.6602 17.0963C57.6263 21.3703 56.6325 26.0648 56.7602 30.7963C56.7378 33.8416 57.2873 36.8639 58.3802 39.7063C58.8428 40.9202 59.3839 42.1027 60.0002 43.2463Z" fill="#21293D"/>
<path d="M98.7902 70.5763C100.749 71.3341 102.666 72.1987 104.53 73.1663C106.508 74.1863 108.318 75.5013 109.9 77.0663C111.443 78.6067 112.67 80.4344 113.51 82.4463C114.442 84.7369 114.895 87.1941 114.84 89.6663C114.84 96.4397 112.58 101.816 108.06 105.796C103.54 109.776 97.6468 111.776 90.3802 111.796C87.6609 111.777 84.9614 111.332 82.3802 110.476C80.1005 109.778 77.8829 108.892 75.7502 107.826C73.8522 106.76 72.0981 105.456 70.5302 103.946C68.6219 102.185 66.8934 100.239 65.3702 98.1363C63.7217 95.8761 62.2218 93.5112 60.8802 91.0563C59.5331 88.5857 58.4119 85.9986 57.5302 83.3263H56.0202L56.4602 112.646H57.7902C58.5702 111.566 59.4602 110.436 60.4402 109.256C61.4202 108.076 62.0602 107.486 62.3502 107.486C63.1172 107.69 63.8418 108.029 64.4902 108.486C66.0975 109.409 67.7842 110.185 69.5302 110.806C72.3114 111.768 75.1727 112.481 78.0802 112.936C82.1718 113.574 86.3095 113.868 90.4502 113.816C95.6687 113.868 100.871 113.226 105.92 111.906C110.34 110.782 114.486 108.775 118.11 106.006C121.449 103.44 124.18 100.169 126.11 96.4263C128.069 92.4943 129.053 88.1487 128.98 83.7563C129.074 79.2006 128.109 74.6853 126.16 70.5663L98.7902 70.5763Z" fill="#21293D"/>
<path d="M241.53 74.1263C241.049 73.2091 240.515 72.3209 239.93 71.4663H221.63C223.193 73.5355 224.449 75.819 225.36 78.2463C226.299 80.8085 226.773 83.5176 226.76 86.2463C226.889 90.7791 225.712 95.2533 223.37 99.1363C221.009 102.818 217.7 105.796 213.79 107.756C210.773 109.387 207.475 110.436 204.07 110.846C200.991 111.227 197.892 111.424 194.79 111.436C192.19 111.555 189.591 111.182 187.13 110.336C185.593 109.768 184.22 108.83 183.13 107.606C181.875 105.844 181.138 103.766 181 101.606C180.754 99.1997 180.58 96.1297 180.48 92.3963C180.48 90.7297 180.457 88.7297 180.41 86.3963C180.364 84.063 180.337 81.5363 180.33 78.8163V71.4663H164.29C164.29 73.4663 164.29 75.4663 164.22 77.3663C164.167 80.1663 164.12 82.743 164.08 85.0963C164.02 87.4563 164 89.3263 164 90.6963C164 92.2663 163.95 93.8663 163.85 95.4863C163.763 97.041 163.592 98.5898 163.34 100.126C163.09 101.596 162.82 102.906 162.53 104.026C162.324 104.96 161.922 105.84 161.35 106.606C159.872 108.243 158.029 109.507 155.97 110.296C153.715 111.19 151.367 111.831 148.97 112.206V113.676H199.79C204.11 113.676 208.58 113.53 213.2 113.236C217.472 113.011 221.689 112.169 225.72 110.736C228.023 109.873 230.201 108.709 232.2 107.276C234.403 105.706 236.384 103.846 238.09 101.746C242.003 96.9203 244.089 90.8686 243.98 84.6563C244.037 80.9988 243.196 77.3831 241.53 74.1263" fill="#21293D"/>
<path d="M150.16 4.00634L151.79 4.12634C153.491 4.31977 155.167 4.69182 156.79 5.23634C158.49 5.92988 160.004 7.01215 161.21 8.39634C161.92 9.21796 162.402 10.2108 162.61 11.2763C162.988 12.7557 163.285 14.2546 163.5 15.7663C163.74 17.4363 163.91 19.1763 164.01 20.9963C164.11 22.8163 164.16 24.6063 164.16 26.3763C164.16 29.3163 164.16 31.9263 164.23 34.1763C164.3 36.4263 164.31 38.6463 164.31 40.8063V44.1263H180.31V39.0063C180.31 35.2797 180.337 31.353 180.39 27.2263C180.39 23.0963 180.51 19.3263 180.61 15.8863C180.71 14.1163 180.78 12.6963 180.83 11.6063C180.88 10.5163 180.93 9.60634 180.98 8.88634C181.014 8.2689 181.087 7.65428 181.2 7.04634C181.29 6.55634 181.39 6.04634 181.49 5.42634C182.74 5.05688 184.023 4.80906 185.32 4.68634C187.18 4.47967 189.049 4.38283 190.92 4.39634C197.794 4.39634 203.44 5.37634 207.86 7.33634C211.717 9.11669 214.97 11.9839 217.22 15.5863C219.741 19.4884 221.046 24.0514 220.97 28.6963C221.102 34.3416 219.123 39.8329 215.42 44.0963H231.94C235.94 40.1563 237.94 35.023 237.94 28.6963C237.94 22.803 236.32 17.943 233.08 14.1163C229.77 10.2538 225.51 7.32073 220.72 5.60634C217.555 4.43168 214.268 3.61656 210.92 3.17634C207.378 2.72686 203.811 2.5064 200.24 2.51634H150.6C149.48 2.63634 149.66 3.57634 149.66 3.57634C149.66 3.87634 149.91 3.97634 150.16 4.00634" fill="#21293D"/>
<path d="M24.1784 192.354C24.1784 192.192 24.1638 192.044 24.1347 191.911C24.1055 191.778 24.0431 191.655 23.9473 191.543C23.8557 191.43 23.7204 191.318 23.5414 191.205C23.3665 191.093 23.1375 190.976 22.8544 190.856C22.5172 190.714 22.1903 190.564 21.8739 190.406C21.5575 190.244 21.2723 190.056 21.0183 189.844C20.7644 189.632 20.5624 189.382 20.4126 189.095C20.2668 188.803 20.194 188.462 20.194 188.07C20.194 187.687 20.2627 187.34 20.4001 187.027C20.5416 186.715 20.7415 186.449 20.9996 186.228C21.2577 186.003 21.5596 185.83 21.9051 185.71C22.2549 185.589 22.6442 185.529 23.073 185.529C23.6559 185.529 24.1596 185.649 24.5843 185.891C25.0131 186.132 25.3441 186.463 25.5773 186.884C25.8146 187.304 25.9332 187.787 25.9332 188.333H24.1097C24.1097 188.074 24.0722 187.848 23.9973 187.652C23.9265 187.452 23.812 187.296 23.6538 187.184C23.4956 187.071 23.2916 187.015 23.0418 187.015C22.8086 187.015 22.615 187.063 22.461 187.159C22.3111 187.25 22.1987 187.377 22.1237 187.539C22.0529 187.698 22.0176 187.877 22.0176 188.077C22.0176 188.226 22.0529 188.362 22.1237 188.483C22.1987 188.599 22.3007 188.705 22.4297 188.801C22.5588 188.893 22.7108 188.982 22.8856 189.07C23.0647 189.157 23.2603 189.242 23.4727 189.326C23.8848 189.488 24.2491 189.667 24.5656 189.863C24.882 190.054 25.1464 190.271 25.3587 190.512C25.571 190.749 25.7313 191.018 25.8396 191.318C25.9478 191.618 26.0019 191.959 26.0019 192.342C26.0019 192.721 25.9353 193.066 25.8021 193.379C25.673 193.687 25.4836 193.953 25.2338 194.178C24.984 194.399 24.6821 194.569 24.3283 194.69C23.9785 194.811 23.5872 194.871 23.1542 194.871C22.7337 194.871 22.3361 194.813 21.9614 194.696C21.5866 194.576 21.2557 194.395 20.9684 194.153C20.6853 193.907 20.4625 193.597 20.3002 193.223C20.1378 192.844 20.0566 192.396 20.0566 191.88H21.8864C21.8864 192.155 21.9135 192.39 21.9676 192.586C22.0217 192.777 22.105 192.931 22.2174 193.048C22.3298 193.16 22.4672 193.245 22.6296 193.304C22.7961 193.358 22.9856 193.385 23.1979 193.385C23.4394 193.385 23.6309 193.339 23.7724 193.248C23.9182 193.156 24.0222 193.033 24.0847 192.879C24.1471 192.725 24.1784 192.55 24.1784 192.354ZM33.8808 185.653H35.7044V191.899C35.7044 192.598 35.5753 193.168 35.3172 193.61C35.0632 194.047 34.7114 194.367 34.2617 194.571C33.8121 194.771 33.2979 194.871 32.7192 194.871C32.1363 194.871 31.618 194.771 31.1642 194.571C30.7103 194.367 30.3565 194.047 30.1025 193.61C29.8527 193.168 29.7278 192.598 29.7278 191.899V185.653H31.5514V191.899C31.5514 192.294 31.5951 192.598 31.6825 192.81C31.7741 193.023 31.9052 193.168 32.0759 193.248C32.2508 193.322 32.4652 193.36 32.7192 193.36C32.9773 193.36 33.1897 193.322 33.3562 193.248C33.5269 193.168 33.656 193.023 33.7434 192.81C33.835 192.598 33.8808 192.294 33.8808 191.899V185.653ZM43.9954 191.717H45.8127C45.7877 192.4 45.6503 192.977 45.4005 193.447C45.1507 193.914 44.7947 194.268 44.3326 194.509C43.8746 194.751 43.3209 194.871 42.6714 194.871C42.1676 194.871 41.7201 194.788 41.3287 194.621C40.9373 194.451 40.6043 194.201 40.3295 193.872C40.0547 193.543 39.8465 193.137 39.705 192.654C39.5676 192.167 39.4989 191.607 39.4989 190.974V189.432C39.4989 188.799 39.5717 188.239 39.7175 187.752C39.8674 187.265 40.0797 186.857 40.3545 186.528C40.6334 186.195 40.9686 185.945 41.3599 185.778C41.7555 185.608 42.2009 185.522 42.6964 185.522C43.3584 185.522 43.9121 185.647 44.3576 185.897C44.8031 186.147 45.1466 186.511 45.388 186.99C45.6337 187.465 45.7815 188.045 45.8314 188.732H44.0079C43.9954 188.299 43.9454 187.96 43.858 187.714C43.7747 187.465 43.6415 187.29 43.4583 187.19C43.2751 187.086 43.0211 187.034 42.6964 187.034C42.4549 187.034 42.2467 187.077 42.0719 187.165C41.897 187.248 41.7534 187.383 41.641 187.571C41.5286 187.758 41.4453 188.004 41.3912 188.308C41.3412 188.612 41.3162 188.982 41.3162 189.419V190.974C41.3162 191.403 41.3391 191.77 41.3849 192.073C41.4307 192.373 41.5036 192.619 41.6035 192.81C41.7034 193.002 41.8387 193.141 42.0094 193.229C42.1843 193.316 42.405 193.36 42.6714 193.36C42.9795 193.36 43.2272 193.314 43.4146 193.223C43.6061 193.131 43.7477 192.966 43.8392 192.729C43.9308 192.492 43.9829 192.155 43.9954 191.717ZM53.8477 191.717H55.665C55.64 192.4 55.5026 192.977 55.2528 193.447C55.003 193.914 54.647 194.268 54.1849 194.509C53.7269 194.751 53.1732 194.871 52.5237 194.871C52.0199 194.871 51.5724 194.788 51.181 194.621C50.7896 194.451 50.4566 194.201 50.1818 193.872C49.907 193.543 49.6988 193.137 49.5573 192.654C49.4199 192.167 49.3512 191.607 49.3512 190.974V189.432C49.3512 188.799 49.424 188.239 49.5698 187.752C49.7196 187.265 49.932 186.857 50.2068 186.528C50.4857 186.195 50.8209 185.945 51.2122 185.778C51.6078 185.608 52.0532 185.522 52.5487 185.522C53.2107 185.522 53.7644 185.647 54.2099 185.897C54.6554 186.147 54.9989 186.511 55.2403 186.99C55.486 187.465 55.6338 188.045 55.6837 188.732H53.8602C53.8477 188.299 53.7977 187.96 53.7103 187.714C53.627 187.465 53.4938 187.29 53.3106 187.19C53.1274 187.086 52.8734 187.034 52.5487 187.034C52.3072 187.034 52.099 187.077 51.9242 187.165C51.7493 187.248 51.6057 187.383 51.4933 187.571C51.3808 187.758 51.2976 188.004 51.2435 188.308C51.1935 188.612 51.1685 188.982 51.1685 189.419V190.974C51.1685 191.403 51.1914 191.77 51.2372 192.073C51.283 192.373 51.3559 192.619 51.4558 192.81C51.5557 193.002 51.691 193.141 51.8617 193.229C52.0366 193.316 52.2572 193.36 52.5237 193.36C52.8318 193.36 53.0795 193.314 53.2669 193.223C53.4584 193.131 53.5999 192.966 53.6915 192.729C53.7831 192.492 53.8352 192.155 53.8477 191.717ZM64.5805 193.235V194.746H60.6274V193.235H64.5805ZM61.1957 185.653V194.746H59.3659V185.653H61.1957ZM64.0497 189.338V190.806H60.6274V189.338H64.0497ZM64.568 185.653V187.171H60.6274V185.653H64.568ZM73.4211 193.235V194.746H69.468V193.235H73.4211ZM70.0363 185.653V194.746H68.2064V185.653H70.0363ZM72.8903 189.338V190.806H69.468V189.338H72.8903ZM73.4086 185.653V187.171H69.468V185.653H73.4086ZM79.4202 194.746H77.8152L77.8277 193.235H79.4202C79.8615 193.235 80.205 193.156 80.4506 192.998C80.6963 192.84 80.869 192.59 80.969 192.248C81.073 191.907 81.1251 191.459 81.1251 190.906V189.488C81.1251 189.067 81.098 188.711 81.0439 188.42C80.9898 188.124 80.8982 187.887 80.7691 187.708C80.6401 187.525 80.4673 187.39 80.2508 187.302C80.0343 187.215 79.7657 187.171 79.4452 187.171H77.784V185.653H79.4452C79.9697 185.653 80.4465 185.739 80.8753 185.91C81.3041 186.08 81.6726 186.33 81.9807 186.659C82.2888 186.984 82.5261 187.385 82.6926 187.864C82.8592 188.343 82.9424 188.888 82.9424 189.5V190.906C82.9424 191.522 82.8592 192.067 82.6926 192.542C82.5261 193.016 82.2888 193.418 81.9807 193.747C81.6767 194.072 81.3083 194.32 80.8753 194.49C80.4423 194.661 79.9573 194.746 79.4202 194.746ZM78.8768 185.653V194.746H77.047V185.653H78.8768ZM94.2411 185.653V194.746H92.4238V185.653H94.2411ZM104.718 185.653V194.746H102.951L100.097 189.057V194.746H98.3604V185.653H100.103L102.982 191.405V185.653H104.718ZM117.503 185.653V194.746H115.686V185.653H117.503ZM119.764 185.653V187.171H113.469V185.653H119.764ZM128.423 189.338V190.849H124.695V189.338H128.423ZM125.213 185.653V194.746H123.383V185.653H125.213ZM129.747 185.653V194.746H127.936V185.653H129.747ZM139.012 193.235V194.746H135.059V193.235H139.012ZM135.627 185.653V194.746H133.798V185.653H135.627ZM138.481 189.338V190.806H135.059V189.338H138.481ZM139 185.653V187.171H135.059V185.653H139ZM153.19 193.235V194.746H149.412V193.235H153.19ZM149.974 185.653V194.746H148.144V185.653H149.974ZM160.744 185.653H162.568V191.899C162.568 192.598 162.439 193.168 162.18 193.61C161.927 194.047 161.575 194.367 161.125 194.571C160.675 194.771 160.161 194.871 159.583 194.871C159 194.871 158.481 194.771 158.027 194.571C157.574 194.367 157.22 194.047 156.966 193.61C156.716 193.168 156.591 192.598 156.591 191.899V185.653H158.415V191.899C158.415 192.294 158.458 192.598 158.546 192.81C158.637 193.023 158.769 193.168 158.939 193.248C159.114 193.322 159.329 193.36 159.583 193.36C159.841 193.36 160.053 193.322 160.22 193.248C160.39 193.168 160.519 193.023 160.607 192.81C160.698 192.598 160.744 192.294 160.744 191.899V185.653ZM168.136 185.653L169.435 188.689L170.671 185.653H172.688L170.496 190.156L172.732 194.746H170.634L169.341 191.643L168.048 194.746H165.994L168.267 190.119L166.044 185.653H168.136ZM180.324 185.653H182.147V191.899C182.147 192.598 182.018 193.168 181.76 193.61C181.506 194.047 181.154 194.367 180.705 194.571C180.255 194.771 179.741 194.871 179.162 194.871C178.579 194.871 178.061 194.771 177.607 194.571C177.153 194.367 176.799 194.047 176.545 193.61C176.296 193.168 176.171 192.598 176.171 191.899V185.653H177.994V191.899C177.994 192.294 178.038 192.598 178.125 192.81C178.217 193.023 178.348 193.168 178.519 193.248C178.694 193.322 178.908 193.36 179.162 193.36C179.42 193.36 179.633 193.322 179.799 193.248C179.97 193.168 180.099 193.023 180.186 192.81C180.278 192.598 180.324 192.294 180.324 191.899V185.653ZM186.111 185.653H189.027C189.635 185.653 190.153 185.758 190.582 185.966C191.011 186.174 191.34 186.482 191.569 186.89C191.798 187.298 191.912 187.802 191.912 188.401C191.912 188.893 191.846 189.313 191.712 189.663C191.579 190.008 191.39 190.298 191.144 190.531C190.898 190.76 190.605 190.943 190.264 191.08L189.708 191.411H187.341L187.335 189.894H188.977C189.227 189.894 189.433 189.84 189.595 189.732C189.762 189.619 189.885 189.463 189.964 189.263C190.047 189.059 190.089 188.822 190.089 188.551C190.089 188.264 190.051 188.018 189.976 187.814C189.905 187.606 189.791 187.448 189.633 187.34C189.479 187.227 189.277 187.171 189.027 187.171H187.94V194.746H186.111V185.653ZM190.239 194.746L188.571 190.693L190.488 190.687L192.193 194.659V194.746H190.239ZM196.793 185.653L198.18 189.75L199.554 185.653H201.546L199.098 191.443V194.746H197.256V191.443L194.807 185.653H196.793ZM213.519 190.781H211.658L211.652 189.457H213.238C213.488 189.457 213.692 189.415 213.85 189.332C214.012 189.244 214.131 189.117 214.206 188.951C214.285 188.78 214.325 188.574 214.325 188.333C214.325 188.054 214.289 187.831 214.219 187.664C214.148 187.494 214.033 187.369 213.875 187.29C213.717 187.211 213.511 187.171 213.257 187.171H212.283V194.746H210.453V185.653H213.257C213.711 185.653 214.117 185.703 214.475 185.803C214.833 185.903 215.137 186.055 215.386 186.259C215.636 186.463 215.826 186.721 215.955 187.034C216.088 187.346 216.155 187.714 216.155 188.139C216.155 188.514 216.08 188.859 215.93 189.176C215.78 189.492 215.545 189.75 215.224 189.95C214.908 190.15 214.493 190.262 213.981 190.287L213.519 190.781ZM213.457 194.746H211.14L211.87 193.235H213.457C213.698 193.235 213.894 193.183 214.044 193.079C214.194 192.975 214.302 192.835 214.368 192.66C214.435 192.481 214.468 192.277 214.468 192.048C214.468 191.79 214.437 191.566 214.375 191.374C214.316 191.182 214.219 191.037 214.081 190.937C213.944 190.833 213.758 190.781 213.525 190.781H211.952L211.964 189.457H213.875L214.306 189.981C214.793 189.965 215.182 190.058 215.474 190.262C215.765 190.462 215.973 190.724 216.098 191.049C216.227 191.37 216.292 191.711 216.292 192.073C216.292 192.656 216.182 193.148 215.961 193.547C215.744 193.943 215.426 194.243 215.005 194.447C214.585 194.646 214.069 194.746 213.457 194.746ZM224.277 185.653H226.1V191.899C226.1 192.598 225.971 193.168 225.713 193.61C225.459 194.047 225.108 194.367 224.658 194.571C224.208 194.771 223.694 194.871 223.115 194.871C222.532 194.871 222.014 194.771 221.56 194.571C221.106 194.367 220.753 194.047 220.499 193.61C220.249 193.168 220.124 192.598 220.124 191.899V185.653H221.947V191.899C221.947 192.294 221.991 192.598 222.079 192.81C222.17 193.023 222.301 193.168 222.472 193.248C222.647 193.322 222.861 193.36 223.115 193.36C223.373 193.36 223.586 193.322 223.752 193.248C223.923 193.168 224.052 193.023 224.14 192.81C224.231 192.598 224.277 192.294 224.277 191.899V185.653ZM233.904 192.354C233.904 192.192 233.89 192.044 233.861 191.911C233.832 191.778 233.769 191.655 233.673 191.543C233.582 191.43 233.446 191.318 233.267 191.205C233.093 191.093 232.864 190.976 232.58 190.856C232.243 190.714 231.916 190.564 231.6 190.406C231.284 190.244 230.998 190.056 230.744 189.844C230.49 189.632 230.288 189.382 230.139 189.095C229.993 188.803 229.92 188.462 229.92 188.07C229.92 187.687 229.989 187.34 230.126 187.027C230.268 186.715 230.468 186.449 230.726 186.228C230.984 186.003 231.286 185.83 231.631 185.71C231.981 185.589 232.37 185.529 232.799 185.529C233.382 185.529 233.886 185.649 234.31 185.891C234.739 186.132 235.07 186.463 235.303 186.884C235.541 187.304 235.659 187.787 235.659 188.333H233.836C233.836 188.074 233.798 187.848 233.723 187.652C233.653 187.452 233.538 187.296 233.38 187.184C233.222 187.071 233.018 187.015 232.768 187.015C232.535 187.015 232.341 187.063 232.187 187.159C232.037 187.25 231.925 187.377 231.85 187.539C231.779 187.698 231.744 187.877 231.744 188.077C231.744 188.226 231.779 188.362 231.85 188.483C231.925 188.599 232.027 188.705 232.156 188.801C232.285 188.893 232.437 188.982 232.612 189.07C232.791 189.157 232.986 189.242 233.199 189.326C233.611 189.488 233.975 189.667 234.292 189.863C234.608 190.054 234.872 190.271 235.085 190.512C235.297 190.749 235.457 191.018 235.566 191.318C235.674 191.618 235.728 191.959 235.728 192.342C235.728 192.721 235.661 193.066 235.528 193.379C235.399 193.687 235.21 193.953 234.96 194.178C234.71 194.399 234.408 194.569 234.054 194.69C233.705 194.811 233.313 194.871 232.88 194.871C232.46 194.871 232.062 194.813 231.687 194.696C231.313 194.576 230.982 194.395 230.694 194.153C230.411 193.907 230.189 193.597 230.026 193.223C229.864 192.844 229.783 192.396 229.783 191.88H231.612C231.612 192.155 231.64 192.39 231.694 192.586C231.748 192.777 231.831 192.931 231.943 193.048C232.056 193.16 232.193 193.245 232.356 193.304C232.522 193.358 232.712 193.385 232.924 193.385C233.165 193.385 233.357 193.339 233.498 193.248C233.644 193.156 233.748 193.033 233.811 192.879C233.873 192.725 233.904 192.55 233.904 192.354ZM241.421 185.653V194.746H239.604V185.653H241.421ZM251.898 185.653V194.746H250.13L247.276 189.057V194.746H245.54V185.653H247.283L250.162 191.405V185.653H251.898ZM261.144 193.235V194.746H257.191V193.235H261.144ZM257.759 185.653V194.746H255.93V185.653H257.759ZM260.614 189.338V190.806H257.191V189.338H260.614ZM261.132 185.653V187.171H257.191V185.653H261.132ZM268.617 192.354C268.617 192.192 268.603 192.044 268.574 191.911C268.544 191.778 268.482 191.655 268.386 191.543C268.295 191.43 268.159 191.318 267.98 191.205C267.805 191.093 267.576 190.976 267.293 190.856C266.956 190.714 266.629 190.564 266.313 190.406C265.996 190.244 265.711 190.056 265.457 189.844C265.203 189.632 265.001 189.382 264.851 189.095C264.706 188.803 264.633 188.462 264.633 188.07C264.633 187.687 264.702 187.34 264.839 187.027C264.981 186.715 265.18 186.449 265.438 186.228C265.697 186.003 265.998 185.83 266.344 185.71C266.694 185.589 267.083 185.529 267.512 185.529C268.095 185.529 268.599 185.649 269.023 185.891C269.452 186.132 269.783 186.463 270.016 186.884C270.253 187.304 270.372 187.787 270.372 188.333H268.549C268.549 188.074 268.511 187.848 268.436 187.652C268.365 187.452 268.251 187.296 268.093 187.184C267.934 187.071 267.73 187.015 267.481 187.015C267.247 187.015 267.054 187.063 266.9 187.159C266.75 187.25 266.638 187.377 266.563 187.539C266.492 187.698 266.456 187.877 266.456 188.077C266.456 188.226 266.492 188.362 266.563 188.483C266.638 188.599 266.74 188.705 266.869 188.801C266.998 188.893 267.15 188.982 267.325 189.07C267.504 189.157 267.699 189.242 267.912 189.326C268.324 189.488 268.688 189.667 269.004 189.863C269.321 190.054 269.585 190.271 269.798 190.512C270.01 190.749 270.17 191.018 270.278 191.318C270.387 191.618 270.441 191.959 270.441 192.342C270.441 192.721 270.374 193.066 270.241 193.379C270.112 193.687 269.922 193.953 269.673 194.178C269.423 194.399 269.121 194.569 268.767 194.69C268.417 194.811 268.026 194.871 267.593 194.871C267.173 194.871 266.775 194.813 266.4 194.696C266.026 194.576 265.695 194.395 265.407 194.153C265.124 193.907 264.901 193.597 264.739 193.223C264.577 192.844 264.495 192.396 264.495 191.88H266.325C266.325 192.155 266.352 192.39 266.406 192.586C266.461 192.777 266.544 192.931 266.656 193.048C266.769 193.16 266.906 193.245 267.068 193.304C267.235 193.358 267.424 193.385 267.637 193.385C267.878 193.385 268.07 193.339 268.211 193.248C268.357 193.156 268.461 193.033 268.524 192.879C268.586 192.725 268.617 192.55 268.617 192.354ZM278.082 192.354C278.082 192.192 278.068 192.044 278.039 191.911C278.009 191.778 277.947 191.655 277.851 191.543C277.76 191.43 277.624 191.318 277.445 191.205C277.27 191.093 277.042 190.976 276.758 190.856C276.421 190.714 276.094 190.564 275.778 190.406C275.461 190.244 275.176 190.056 274.922 189.844C274.668 189.632 274.466 189.382 274.317 189.095C274.171 188.803 274.098 188.462 274.098 188.07C274.098 187.687 274.167 187.34 274.304 187.027C274.446 186.715 274.645 186.449 274.904 186.228C275.162 186.003 275.464 185.83 275.809 185.71C276.159 185.589 276.548 185.529 276.977 185.529C277.56 185.529 278.064 185.649 278.488 185.891C278.917 186.132 279.248 186.463 279.481 186.884C279.719 187.304 279.837 187.787 279.837 188.333H278.014C278.014 188.074 277.976 187.848 277.901 187.652C277.83 187.452 277.716 187.296 277.558 187.184C277.4 187.071 277.196 187.015 276.946 187.015C276.713 187.015 276.519 187.063 276.365 187.159C276.215 187.25 276.103 187.377 276.028 187.539C275.957 187.698 275.922 187.877 275.922 188.077C275.922 188.226 275.957 188.362 276.028 188.483C276.103 188.599 276.205 188.705 276.334 188.801C276.463 188.893 276.615 188.982 276.79 189.07C276.969 189.157 277.164 189.242 277.377 189.326C277.789 189.488 278.153 189.667 278.47 189.863C278.786 190.054 279.05 190.271 279.263 190.512C279.475 190.749 279.635 191.018 279.744 191.318C279.852 191.618 279.906 191.959 279.906 192.342C279.906 192.721 279.839 193.066 279.706 193.379C279.577 193.687 279.388 193.953 279.138 194.178C278.888 194.399 278.586 194.569 278.232 194.69C277.883 194.811 277.491 194.871 277.058 194.871C276.638 194.871 276.24 194.813 275.865 194.696C275.491 194.576 275.16 194.395 274.872 194.153C274.589 193.907 274.367 193.597 274.204 193.223C274.042 192.844 273.961 192.396 273.961 191.88H275.79C275.79 192.155 275.817 192.39 275.872 192.586C275.926 192.777 276.009 192.931 276.121 193.048C276.234 193.16 276.371 193.245 276.534 193.304C276.7 193.358 276.89 193.385 277.102 193.385C277.343 193.385 277.535 193.339 277.676 193.248C277.822 193.156 277.926 193.033 277.989 192.879C278.051 192.725 278.082 192.55 278.082 192.354Z" fill="#21293D"/>
</svg>
